<?xml version="1.0" encoding="utf-8"?>
<!-- Generator: Adobe Illustrator 28.0.0, SVG Export Plug-In . SVG Version: 6.00 Build 0)  -->
<svg version="1.1" id="圖層_1" xmlns="http://www.w3.org/2000/svg" xmlns:xlink="http://www.w3.org/1999/xlink" x="0px" y="0px"
	 viewBox="0 0 396.9 415" style="enable-background:new 0 0 396.9 415;" xml:space="preserve">
<style type="text/css">
	.st0{fill:url(#SVGID_1_);}
	.st1{fill:url(#SVGID_00000098913925037082751650000006268776356640249275_);}
	.st2{fill:url(#SVGID_00000067945803227528839270000007643825340180338816_);}
	.st3{fill:url(#SVGID_00000170247852257952386120000016720151266691340439_);}
	.st4{fill:url(#SVGID_00000125570825040192584900000008285482688735179395_);}
	.st5{fill:url(#SVGID_00000090259965567252729860000004659216090072256408_);}
	.st6{fill:url(#SVGID_00000158745250620655097110000002363819537374869388_);}
	.st7{fill:url(#SVGID_00000045602361907448914510000013389049493278774939_);}
	.st8{fill:url(#SVGID_00000075885229580478026550000010037528488628088462_);}
	.st9{fill:url(#SVGID_00000110439956237775808210000000964496111970239628_);}
	.st10{fill:url(#SVGID_00000010293674384337565150000016197406179290384545_);}
	.st11{fill:url(#SVGID_00000137851835259518760460000007091051736195897497_);}
	.st12{fill:url(#SVGID_00000034774522928770718840000005056365142743124893_);}
</style>
<g>
	<linearGradient id="SVGID_1_" gradientUnits="userSpaceOnUse" x1="169.2001" y1="212.4939" x2="397.0162" y2="212.4939">
		<stop  offset="5.618000e-03" style="stop-color:#F0CC7E"/>
		<stop  offset="0.1854" style="stop-color:#E8C47E"/>
		<stop  offset="0.5955" style="stop-color:#C78A03"/>
		<stop  offset="0.7927" style="stop-color:#E3B75E"/>
		<stop  offset="0.8708" style="stop-color:#EFCA84"/>
		<stop  offset="1" style="stop-color:#F4E7CF"/>
	</linearGradient>
	<path class="st0" d="M257.8,80.7c-2.4-2.6-4.9-4.8-6.8-7.4c-11.3-14.9-15.8-31.7-13-50.3c0.4-2.8,1-5.7,1.6-8.5
		c0.1-0.6,0.3-1.2,0.5-1.9c0.4-1.3,1.1-2.3,2.6-2.5c1.4-0.1,2.2,0.7,2.9,1.8c5.5,8.8,13.3,15,22.2,20.1c5.3,3.1,10.8,5.9,16.3,8.7
		c13.4,7,26.4,14.6,38.7,23.5c24.8,17.8,42.6,41.2,55.1,68.9c5.1,11.5,9.7,23.1,12.7,35.4c1,4.1,1.5,8.2,1.7,12.3
		c0.2,2.9,1,5.8,1.5,8.7c2.7,14.5,3.7,29.2,3,43.9c-0.4,7.7-0.8,15.3-1.5,23c-1.3,13.7-5.5,26.6-11,39.1c-6,13.6-14.6,25.1-26,34.5
		c-3.8,3.1-7.9,5.6-11.9,8.4c-0.6,0.5-1.3,0.8-2.2,1.3c1.7,2.3,2.7,4.9,3.2,7.7c0.4,2.7,0.3,5.5-0.9,8c-0.5,1.1-1.4,2.2-2.3,3
		c-0.8,0.8-1,1.5-1,2.5c0.1,2.1,0.2,4.3,0,6.5c-0.3,3.3-1.6,6.2-3.7,8.7c-1.1,1.3-2.7,2.2-4.2,3.4c-0.2,2-0.3,4.3-0.7,6.6
		c-1.4,7.6-7.4,13.4-14.8,14.3c-1.9,0.2-3.8,0-6,0c-0.1,0.2-0.4,0.7-0.7,1.3c-1.6,2.5-3,5.1-4.8,7.4c-2.2,2.8-5.2,4.7-8.8,5.5
		c-4.9,1.1-9.5-0.9-12-5.4c-2.5-4.4-2.7-9.1-2.1-14c1.1-8,4-15.5,7.2-22.8c1.9-4.2,4-8.3,6.2-12.8c-0.7,0.2-1.2,0.3-1.6,0.6
		c-4.7,2.9-9.4,5.7-13.9,8.9c-10.1,7.2-21,12.5-33.4,14.4c-6.8,1-13.5,1.1-20.3,0.4c-1.2-0.1-2.4-0.3-3.6-0.4
		c-0.2,0.4-0.5,0.7-0.7,1c-2.6,5.4-7,8.6-12.7,10.2c-1.5,0.4-3,0.7-4.4,1c-3.7,0.7-5.5,1.6-8.5,4c0.3-0.8,0.5-1.7,1-2.3
		c1.4-2.1,3.3-3.7,5.7-4.6c2.1-0.8,4.2-1.5,6.3-2.4c2.6-1.1,4.9-2.6,6.7-4.9c0.7-0.9,1.1-1.9,1.7-2.8c-1.1-0.9-2.1-0.8-3.2-0.6
		c-5,0.6-9.9,0.4-14.7-1.1c-11.6-3.7-17.1-13.2-14.2-25c0.7-2.7,1.9-5.3,2.8-7.9c0.2-0.7,0.6-1.3,1-2.2c-0.9,0.1-1.5,0.2-2.1,0.4
		c-3.5,0.8-7,0.5-10.5-0.1c-1.6-0.3-3.2-0.6-4.7-0.5c-2.4,0.1-4.4,1.2-6.3,2.8c0.7-2.8,3-5.2,6-5.8c2-0.4,4.1-0.4,6.2-0.2
		c3.7,0.4,7.3,0.6,10.9-0.7c1.6-0.5,2.5-1.3,3-3c3.6-11.3,9.1-21.6,16.5-30.9c3.7-4.6,7.9-8.6,12.8-11.9
		c9.8-6.7,19.5-13.4,30.4-18.2c0.1-0.1,0.2-0.2,0.6-0.5c-0.8,0-1.4-0.1-1.9-0.1c-6.4,0.1-12.6-0.8-18.5-3.3
		c-6.5-2.7-11.3-7.2-14.1-13.7c-2.5-5.9-1.4-12.1,2.8-16.2c2.8-2.8,6.4-3.8,10.2-4.2c3.8-0.3,7.7,0,11.6,1.1
		c3.4-8,9.1-11.5,17.8-9.2c1.5-4.1,2.7-8.1,3.3-12.3c1.5-10.4,2.3-20.8,1.9-31.3c0-0.5-0.1-0.9-0.1-1.8c-0.6,0.7-1,1-1.3,1.4
		c-3.4,5.4-6.8,10.8-10.2,16.3c-1.7,2.8-3.4,5.6-5.1,8.4c-0.4,0.6-0.8,1.2-1.3,1.7c-1.4,1.6-2.8,1.4-3.7-0.6c-0.7-1.4-1.2-3-1.8-4.4
		c-1.7-4.4-4-8.3-7.2-11.8c-0.3-0.4-0.6-0.7-0.9-1.1c-1.3-1.7-1.2-2.4,0.8-3.3c2.4-1.1,4.9-2.1,7.1-3.4c4.7-2.7,8.5-6.5,11.8-10.8
		c4.4-5.8,8.6-11.7,12.9-17.6c0.4-0.5,0.6-1.1,1.2-2c-0.9,0.3-1.6,0.4-2.1,0.7c-2.4,1.8-5.1,3.4-7.2,5.5c-3.4,3.5-6.4,7.4-9.6,11.1
		c-0.7,0.8-1.4,1.7-2.2,2.5c-1.1,1.2-2.5,1.4-3.9,0.6c-0.7-0.4-1.4-0.7-2-1.2c-4.4-3.6-8.7-7.3-13-11c-0.7-0.6-1.2-1.3-1.7-2
		c-0.8-1.2-0.6-2,0.7-2.7c0.5-0.3,1-0.4,1.6-0.6c1.5-0.4,3.1-0.9,4.6-1.3c9-2,16.9-6.2,24-12.1c2.1-1.7,4.2-3.4,6.2-5.3
		c1.6-1.5,3-3.3,4.3-5.1c-1.3,0.3-2.1,1.2-3.1,1.9c-3.1,2.4-4.3,2.6-7.5,0.5c-2.8-1.8-5.5-3.9-8-6c-1.1-0.9-1.8-2.2-2.7-3.4
		c-1.8,2.1-2.5,5-3.8,7.6c-1.7-0.4-2.3-1.6-2.7-2.7c-1.2-3.4-2.5-6.7-3.3-10.2c-1.7-7.1-1.5-14.2,0.5-21.3
		c2.7-9.8,8.8-17.1,16.7-23.1C257,81.2,257.5,80.9,257.8,80.7z M357.9,277.7c1.8-0.8,3.6-1.5,5.4-2.3c1.7-0.7,3.5-1.3,5-2.2
		c4.3-2.6,5.7-6.8,6-11.9c-4.2,2.3-8.4,3.1-12.8,2.8c-0.4,0-0.8,0.6-1.5,1.1c3.9,0.7,7.5,1.3,10.5,3.4c-4-0.5-7.9-1.6-11.9-0.6
		c3,0.7,6.2,0.9,8.9,2.6c-1.6,0.1-3.2-0.1-4.8-0.1c-2,0-4,0.2-6,0.4c-0.6,0.1-1.4,0.2-1.5,1.3c3,0.2,5.9,0.3,8.7,1.4
		c-4.1,0.8-8.3,0.6-12.2,2.3c0.8,0.4,1.5,0.5,2.2,0.7C355.4,276.8,356.7,277.3,357.9,277.7c-3.2-1-7.8-0.2-9.3,1.8
		c2.7,0.2,5.3,0.7,7.6-1C356.7,278.1,357.3,277.9,357.9,277.7z M348.9,292c-2.9-1.4-5.7-2.9-8.9-3.4c-1.4-0.2-2.3,0.2-3,1.4
		c1.9,1.1,3.9,2,5.7,3.2c1.7,1.1,3.5,2.3,4.4,4.9c-3.9-2.5-7.6-4.3-11.7-5.3c-1.9-0.4-1.9-0.4-3.2,1.4c4.9,2.1,10.3,3.5,13.2,8.8
		c-0.4,0-0.6,0.1-0.7,0c-4.9-3.5-10.6-4.8-16.4-5.7c-0.3-0.1-0.7,0.3-1.2,0.4c3.1,1.3,6,2.4,8.8,3.6c2.4,1.1,4.6,2.6,6.3,4.7
		c0.3,0.4,0.5,0.8,0.9,1.7c-4.4-2.9-8.5-4.8-13.1-5.7c1.4,1,2.8,1.8,4.2,2.8c1.4,1,2.6,2.2,3.9,3.4c-0.1,0.1-0.2,0.3-0.3,0.4
		c-2.6-1.3-5.3-2.6-7.9-3.8c-4.1-1.8-6.5-2.4-8.6-2.3c2.1,1.1,4.2,2.1,6.2,3.2c1.9,1.1,3.9,2.3,5.1,4.2c-0.9-0.2-1.7-0.5-2.5-0.9
		c-3.8-1.6-7.6-3.3-11.8-3.7c-0.7-0.1-1.5,0-2.2,0.1c0,0.2-0.1,0.4-0.1,0.6c1.7,0.9,3.4,1.9,5.2,2.8c1.8,0.9,3.7,1.6,5.5,2.4
		c-0.1,0.2-0.1,0.3-0.2,0.5c-4.9-0.3-9.4-1.7-13.8-4c-0.9,0.6-1.9,1.2-3.1,2c1.9,1.2,3.5,2.2,5.2,3.1c1.6,0.9,3.3,1.6,5,2.4
		c-2.3,0.5-4.4,0-6.4-0.7c-2-0.8-3.9-1.7-6.4-2.7c2.6,4,5.9,6.3,9.3,8.6c-5.4-0.2-9-3.5-12.3-7.3c1,2.5,2.8,4.5,4.6,6.3
		c1.9,1.7,4.1,3.1,6.1,4.6c-3.1,0.1-5.9-0.7-8.5-3c-1.8-1.6-3.3-3.4-4.9-5.3c-0.6-0.7-1-1.3-1.9-0.1c3.5,5.4,7.9,9.8,13.9,12.6
		c-5.1,0.2-8.9-2.6-12.8-5.3c2.3,4.2,5.5,7.5,10.3,9.7c-2.7-0.2-4.7-0.8-6.4-2.3c-2.1-1.9-4.1-4-6-6.2c-1.3-1.5-2.3-3.2-3.4-4.8
		c-0.2,0.1-0.3,0.1-0.3,0.2c-1,6.1,2.2,12.5,7.7,15.5c6.9,3.7,14.8-1.3,15.3-7.4c0.1-0.8,0.2-1.6,0.3-2.4
		c1.2-9.5,6.2-12.6,13.2-13.2c1.4-0.1,2.7-0.2,4.1-0.4c1.4-0.2,2.9-0.5,4.2-1c4.8-1.7,7.7-5,8.4-10.1c0.2-1.4,0.2-2.9,0.4-4.3
		C348.6,294.7,348.7,293.4,348.9,292c0.3-2.1,0.6-4.2,1-6.5c-1.4,0-2.9-0.1-4.3,0s-2.9-0.7-4.4,0.6
		C344.3,287.7,346.8,289.5,348.9,292z M350.2,212.7c0.3-0.2,0.5-0.4,0.6-0.5c8.4-10.9,15.8-22.3,20.9-35.2
		c2.5-6.4,2.5-12.9,0.1-19.2c-2.7-7.1-6.1-13.9-10.5-20.2c-5.3-7.5-11.1-14.6-17.3-21.4c-5.7-6.2-12.4-11.1-20.2-14.2
		c-7.7-3.1-15.7-5.1-24.1-4.4c-12.9,1-24.3,5.8-34.3,14.1c-0.5,0.4-1,0.7-1.6,1c0.1,0.2,0.3,0.4,0.4,0.5c0.4-0.1,0.7-0.2,1.1-0.4
		c2.9-1,4.1-0.5,5.2,2.4c0.5,1.3,1,2.7,1.3,4.1c0.5,3.7,2.7,5.5,6.3,6.2c2.4,0.4,4.8,1,7.2,1.7c2.5,0.7,2.8,1.5,1.5,3.8
		c-1.8,2.9-4.1,5.3-6.8,7.3c-3.3,2.4-6.6,4.8-9.8,7.3c-2.6,2-5,4.3-7.6,6.4c0.1,0.1,0.2,0.3,0.3,0.4c0.6-0.4,1.3-0.8,1.9-1.2
		c2.8-1.7,5.5-3.5,8.3-5.2c3.5-2.2,7.1-2.2,10.7-0.3c1.5,0.8,3.2,1.8,4.8,1.9c1.6,0,3.3-1,5-1.5c2.3-0.8,2.8-1.5,2.8-3.8
		c0-0.8-0.1-1.6-0.4-2.3c-1-2.5-2.2-4.9-3.3-7.4c-1-2.3-2.4-4.3-4.8-5.4c-0.6-0.3-1.1-1.2-1.2-1.8c0-0.4,0.9-1,1.5-1.2
		c4.3-1.4,8.5-2.8,12.9-3.9c3.5-0.9,6.6-2.3,9.4-4.5c1.9-1.5,3.9-3.1,5.8-4.6c1.3-1,2.6-1.3,4.2-0.7c5.4,2.3,10.3,5.4,14.7,9.4
		c0.6,0.6,1.2,1.3,1.7,2c1.1,1.7,0.7,3.1-1.2,3.8c-0.7,0.3-1.5,0.5-2.3,0.6c-6,1-12,1.9-18,2.9c-1.6,0.3-3.3,0.7-4.7,1.5
		c-4.4,2.5-7.8,6.1-10.2,10.5c-0.2,0.5-0.4,1-0.7,1.8c1.1-0.5,1.8-0.8,2.5-1.1c5.3-2.7,10.5-5.4,15.8-8.1c1.2-0.6,2.5-1.2,3.7-1.7
		c1.5-0.6,3-0.7,4.4,0.1c3.7,1.9,7.1,4.3,10.2,7.1c1.3,1.2,1.4,2.3,0.5,3.9c-0.5,1-1.1,1.9-1.8,2.8c-3,3.9-6.1,7.8-9.1,11.7
		c-0.4,0.5-0.7,1-1,1.4c1.8,0.6,3.5,1.1,5.2,1.7c0.9,0.4,2.2,0.6,2.2,1.9c-0.1,1.4-1.4,1.6-2.4,1.9c-7.7,2.5-15.3,5-23,7.6
		c-3.9,1.3-7.8,2.8-11.7,4.2c-3.1,1.1-4.9,3.6-6.4,6.2c-1.1,2,0.1,3.9,0.8,5.8c2.2,6.5,4.9,12.8,8.2,18.9c1.1,2,2.6,3.4,4.2,4.9
		c1.2,1.1,4.2,0.3,4.7-1.2c0.7-2.2,0.7-4.4,0.4-6.9c-1,0.5-1.8,0.9-2.6,1.3c-2.4,1.1-3.7,0.8-4.9-1.6c-1-2-1.8-4.1-2.6-6.2
		c-0.7-1.9-0.4-2.4,1.6-2.8c1.7-0.4,3.5-0.5,5.2-0.9c1.4-0.3,3.4,0.6,4.2-0.9c0.7-1.2,0.6-2.9,0.8-4.4c0-0.3,0-0.6-0.1-1.2
		c-1.4,0.9-2.5,1.7-3.7,2.4c-2.8,1.7-4.9,1.3-6.9-1.3c-1.2-1.7-2.4-3.4-3.4-5.2c-2-3.6-1.4-4.7,2.8-4.5c3.3,0.1,6.6,0.1,9.7-1
		c4.8-1.6,9.4-3.5,14.1-5.4c3.8-1.6,7.5-3.6,11.2-5.4c3.2-1.6,6.4-1.5,9.5,0.1c1.9,1,3.6,2.3,5.4,3.5c0.7,0.5,0.7,1.2,0.7,2.1
		c0,1.6,0,3.4,0.5,4.9c1.1,3.5,3.5,6.1,6.4,8.2c0.8,0.6,1.7,1.2,2.5,1.9c1.1,0.9,1.1,1.5,0.3,2.7c-1,1.4-2.2,2.6-3.1,4
		c-0.7,1-1.3,2.1-1.5,3.2C352.1,202.5,351.2,207.5,350.2,212.7z M291.4,260.9c3.2-2.2,5.5-4.5,7-7.5c0.5-1,0.8-2.1,1-3.2
		c0.4-2.6-0.8-3.7-3.4-3.4c-1.9,0.2-2.6-0.2-3.3-2c-0.5-1.2-0.9-2.4-1.5-3.5c-1.3-2.3-3.1-4.1-5.7-4.9c-2.2-0.7-4-0.3-5.3,1.5
		c-0.9,1.3-1.6,2.7-2.1,4.2c-1.1,3.1-3.1,3.7-5.6,1.5c-1.4-1.3-2.8-2.6-4.3-3.8c-2.5-1.9-5.2-3.4-8.4-3.9c-3.6-0.6-6.7,0.9-8.3,4.2
		c-0.6,1.2-0.9,2.5-1.2,3.9c-0.5,2.3-1.8,3.1-4,2.5c-1-0.3-2-0.7-3-1c-4.2-1.2-8.3-1.5-12.5-0.1c-3.7,1.3-5.7,4.2-5.7,8
		c0,2,0.5,3.8,1.5,5.5c2.5,4.6,6.2,7.8,11.1,9.7c4.4,1.7,8.9,2.5,13.6,2.8c0.5,0,1-0.1,1.9-0.1c-2.7-1.6-4.9-3-7.1-4.4
		c-5.7-3.8-10.8-8.2-15.4-13.3c-0.8-0.9-1.7-1.8-2.2-3.4c11.5,10.7,26.4,20.3,32.1,20.5c-9.2-5.9-17.4-12.6-23.6-21.5
		c8.7,7.4,18.2,13.6,28.4,18.7c-4.7-7-10.8-12.7-15.8-19.4c4.1,2.6,8.1,5.4,11.6,8.7c3.6,3.3,6.9,7,10.4,10.4
		c-0.3-1.9-0.8-3.7-1.5-5.4c-1.7-3.9-4.1-7.4-6.7-10.8c-1.7-2.1-3.3-4.3-5-6.5c-0.3-0.5-0.6-1-0.9-1.5c4.2,2.3,7.5,5.3,10.6,8.7
		c3.1,3.3,5.4,7.2,7.4,11.3c1-5.7-1.3-10.9-1.9-16.5c2.4,1.3,3.8,4.1,7.1,13.8c1.1-1.8,1.4-3.7,1.8-5.5c0.3-2,0.4-4,0.7-6
		c0.3-1.8-0.5-3.7,0.3-5.6c1.5,1.4,2.3,3.7,2.5,8.8c0.1,3-0.3,6.1-0.4,9.4c1-1.3,1.9-2.5,2.7-3.6c0.8-1.1,1.4-2.3,2.2-3.4
		c0.8-1.1,0.8-2.7,2.5-3.7C293.1,254.7,292.1,257.5,291.4,260.9z M318.2,357.8c-0.2,0.1-0.3,0.2-0.5,0.3c1.1,3.3,2.1,6.7,3.4,9.9
		c1.3,3.2,2.9,6.3,4.3,9.5c-1-0.5-1.9-1.2-2.5-2c-2.1-3.1-4.1-6.3-6.1-9.5c-0.4-0.6-0.7-1.3-1-1.9c0.8,7.5,3.5,14.3,5.7,21.4
		c-4.2-4.8-6.6-10.5-9.2-16.1c0.6,7,1.8,13.9,3.9,20.5c-4.7-6.2-6.5-13.5-8.5-20.8c-0.5,7.9,0.1,15.6,0.7,23.4
		c-1.6-3.4-2.6-7-3.3-10.7c-0.6-3.6-1.1-7.2-1.6-10.8c-2.6,10.4-3.7,21-4.6,31.6c-1.2-5-1.9-10-1.8-15.1c0.1-5,0.5-10,0.8-15
		c-3.8,8.3-7.1,16.6-7.9,25.8c-0.2,2.7,0,5.4,1.2,8c1.8,3.9,5,5.1,8.9,3.4c2.2-0.9,3.9-2.4,5.4-4.2c2.5-3,4.7-6.3,5.7-10.2
		c0.5,0.1,0.8,0.2,1.1,0.3c8.5,2.7,15.9-1.7,17.5-10.5c0.4-2,0.3-4.1,0.4-6.2c0-0.8,0-1.5,0-2.3c2.4-0.5,4.4-1.1,5.7-2.9
		c1.9-2.7,3.4-5.6,3.5-9c0-2.3-0.2-4.6-0.3-7.1c1.6-0.7,3.1-1.7,3.7-3.6c1.1-3.5,0.6-6.8-1.1-10c-0.7-1.3-1.8-1.6-3.1-1.1
		c-1.4,0.6-2.8,1.4-4.5,2.2c2.5,2.3,4.4,4.6,5.4,8.2c-2.9-1.9-5-4.1-8.6-4.8c0.7,2.3,1.3,4.2,2,6.1c0.8,2,1.7,3.9,2.6,6.2
		c-3.3-1.9-6.7-6.6-8.9-12.1c-1.8,0.6-2.3,0.9-1.9,2.5c0.5,2.2,1.1,4.4,2.2,6.3c1.6,2.8,3.6,5.2,5.5,7.9c0.5,0.6,1.2,1.2,1.3,2.3
		c-3.6-1.7-6.4-4-9.2-6.4c1.3,3.7,4,6.7,5.4,10.5C324.9,368,321,363.3,318.2,357.8z M301.9,256.8c17.2-9.2,30.7-22.3,42.6-37.3
		c-3,2.3-5.7,4.8-8.5,7.3c-3,2.8-4.3,2.8-7.4,0.1c-1.7-1.5-3.3-3.1-5-4.5c-2.3-2-3.4-2.2-6-0.5c-1.6,1-3,2.3-4.7,3.3
		c-1.4,0.8-3,1.9-4.5,2c-3.1,0.1-6.3-0.3-9.1-1.8c-4.4-2.4-8.1-5.7-10.3-10.4c-1-2-2.2-3.9-3.4-5.8c-0.7-1.1-1.7-2.1-2.5-3.2
		c-0.9-1.1-1.7-2.2-2.5-3.3c-0.3,1.1-0.2,2.1,0,3c0.8,3.3,1.8,6.6,2.6,9.9c0.3,1.1,0.6,2.1,0.8,3.2c0.4,2.2-0.4,3.9-2.4,5
		c-1.7,1-3.5,2-5.2,2.9c-3.1,1.7-5.5,4.3-7.7,7.2c1.9,1.4,3.7,2.8,5.5,4.2c0.9-1.1,1.6-2.1,2.5-3.1c2.8-3.1,6.2-3.8,10-2.6
		s6.4,3.8,8.2,7.3c0.5,0.9,0.8,1.9,1.2,2.8c0.4,0,0.7,0.1,1,0.1c3.8,0.5,6,2.6,6,6.5c0,1.9-0.5,3.8-0.8,5.6
		C302.4,255.6,302.1,256.2,301.9,256.8z M320.9,269.2c4.2-2.2,7.1-5.6,10.7-8c-0.9,3.8-3.2,6.7-5.6,10c4.5-0.8,7.6-3.7,11.4-5.3
		c-0.8,3.8-3.3,6.5-6.3,9.1c4,0.7,7.3-0.9,11.1-1.6c-2.1,5.3-6,7.1-10.9,7.5c1.3,2,2.5,3.8,3.8,5.7c2.6-2.4,5.1-4.7,7.6-7
		c1.1-1,1.6-2.1,1.9-3.5c0.9-4.3-0.2-8.1-2.6-11.6c-3.9-5.8-13.3-12.2-24.4-9.7c-2.1,0.5-4.2,1.4-5.7,3.1c1.3,2.8,2.5,5.4,3.8,8.1
		c3.7-6.9,7.6-10.2,11-9.3c-1.3,1.8-2.8,3.6-4,5.5C321.7,264.2,321,266.5,320.9,269.2z M345.7,104.2c0.1-0.1,0.2-0.1,0.3-0.2
		c-0.1-0.3-0.2-0.5-0.3-0.8c-2.8-4.2-6-8.1-10.1-11.1c-10-7.4-21.2-11.8-33.7-12.5c-13.9-0.8-26.8,3-39,9.3
		c-4.7,2.5-8.5,6.2-11.6,10.5c-0.3,0.4-0.4,0.9-0.6,1.3c1.1-0.5,1.9-1.1,2.7-1.8c5.2-4.1,10.8-7.4,17.2-9.3
		c5.4-1.6,10.8-3.1,16.2-4.4c7.7-1.9,15.5-2.2,23.3-0.9c10.4,1.7,20,5.5,28,12.8c2.1,1.9,4.2,3.9,6.3,5.9
		C344.8,103.5,345.3,103.8,345.7,104.2z M327.7,210.2c3.3-4.8,6.6-9.6,9.9-14.4c1.1-1.7,2.2-3.4,3.1-5.1c0.8-1.5,0.8-1.8-0.7-2.7
		c-3.5-2.1-7-4.2-10.5-6.2c-0.7-0.4-1.7-0.8-2.5-0.7c-3.3,0.3-6.5,1.3-9.8,2.2c0.2,2.1,0.4,3.9,0.7,5.9c1.5-0.5,2.9-1,4.2-1.4
		c1.2-0.4,2.4-0.3,3.2,0.9c1.9,3,3.4,6.2,4.2,9.6c0.4,1.7-0.4,2.8-2.1,3.2c-0.7,0.2-1.4,0.2-2.1,0.2c-1.8,0.1-3.5,0.3-5.3,0.4
		c-0.8,0.1-1.5,0.3-1.5,1.2c0,2,0,3.9,0,5.8C321.8,209.4,324.6,209.8,327.7,210.2z M355.4,322.6c1.4-0.6,2.7-1.1,4.1-1.7
		c0.7-0.3,1.4-1.1,1.9-1c1.4,0.5,1.8-0.4,2.4-1.1c2.5-3,4.9-6.1,7.4-9.1c0.9-1.1,1-2.3,0.4-3.6c-0.4-0.8-0.7-1.6-1.3-2.3
		c-4.4-5.7-10.4-8.5-17.4-10c-0.4,5.2-0.2,10.4-3.2,14.9c1.9-0.5,3.5-1.2,5.1-1.7c1.7-0.5,3.4-0.9,5.1-1.3c0.1,0.2,0.1,0.3,0.2,0.5
		c-4.4,2.4-8.5,5.3-11.9,9.1c2.8-0.2,5.3-1.4,7.7-2.5c2.4-1.1,4.7-2.5,7.1-3.7c-2.8,4.4-6.7,7.4-11,10c4.5-0.4,8.2-2.6,12.2-5.2
		C362.9,316.7,362.7,316.9,355.4,322.6z M270.9,341c3.3-3,5.1-8.1,4.4-12.7c-1.4-9-9.2-17-18.3-18.7c-1.2-0.2-2.5-0.3-3.6-0.5
		c-1.6,4.7-1.9,9.9-0.7,12.2c2.5-2.7,3.5-5.9,4.1-9.4c2.4,3.7,1.1,7.4,0.1,11.1c0.2,0.1,0.3,0.2,0.5,0.3c2.5-1.8,4.9-3.7,7.6-5.7
		c-0.4,4.1-3.4,6.3-5.5,9c0.1,0.1,0.2,0.3,0.3,0.4c3.5-1,7-1.9,11-3c-2.7,3.8-6.5,5.2-10.3,7.1c4.3,1.1,8.2,0.6,12.2,0.4
		c-2.4,3.5-6.2,4-10.3,4.7C265.1,338.3,268,339.7,270.9,341z M339.3,106.2c-3.1-4.9-8.1-9.2-13.5-11.5c-12.3-5.4-25-7.5-38.4-5
		c-9.9,1.9-19.2,5.4-27.4,11.4c-5.2,3.8-9.2,8.6-11.7,14.6c-0.4,0.9-0.7,1.9-1,2.9c0.7-0.2,1-0.6,1.2-1c4.1-6.5,9.4-11.6,16.2-15.3
		c14.2-7.7,29.2-11.5,45.4-9.2c9.8,1.4,19,4.3,26.6,11.1C337.6,104.9,338.5,105.5,339.3,106.2z M290.5,317.4
		c0.2-0.3,0.3-0.4,0.3-0.5c1.8-11.9-7.6-23.3-17.3-25.9c-1.6-0.4-3.2-0.9-4.8-0.3c-1,2.9-2,5.7-3,8.7c3.1-1.2,5.4-3.2,8.1-5.5
		c-0.2,0.9-0.2,1.4-0.4,1.8c-1.4,2.3-2.8,4.5-4.4,7.1c3.4-0.9,6.7-1.7,10.5-2.7c-2.5,3.4-5.7,5-9.1,7c4.7,0.6,8.9-0.5,13.5-0.9
		c-1.9,2.5-4.3,3.3-6.2,5c2-0.1,4-0.2,5.9-0.3c-0.5,0.7-1.1,1.1-1.8,1.4c-0.6,0.3-1.1,0.6-1.9,1c2.1,0.6,3.9,0.9,5.6,1.6
		C287.3,315.5,288.8,316.5,290.5,317.4z M349.9,272.2c3.5-3.8,6.7-8,9.6-12.3c0.3-0.4,0.4-1.1,0.3-1.6c-0.6-1.8-1-3.8-1.9-5.4
		c-4.8-7.7-15.5-12.1-24.4-10.5c-3.1,0.6-4.9,2.6-7.2,4.8c4.2,0.2,7.2-1.8,10.9-3.2c-0.9,1.4-1.6,2.4-2.6,3.9
		c3.8-1.1,6.9-3.2,10.8-2.3c-2.1,1.7-4.4,2.7-5.6,5.1c3-0.8,6-1.6,9-2.4c0.1,0.2,0.2,0.3,0.3,0.5c-1.3,1.3-2.6,2.7-4,4
		c0,0.1,0.1,0.2,0.1,0.3c2.4-0.6,4.9-1.1,7.8-1.8c-1.3,2.6-3.3,3.8-5.1,5.1c0.1,0.2,0.1,0.3,0.2,0.5c2.8-0.2,5.5-0.4,8.8-0.6
		c-2.9,3.5-6.6,4.6-9.9,5.6C347.8,265.5,348.8,268.8,349.9,272.2z M248,27.4c-0.2,0.1-0.3,0.2-0.5,0.3c0.6,1.1,1,2.3,1.8,3.2
		c1.5,1.8,3.1,3.7,4.9,5.2c6.3,5.5,13.5,9.7,21.1,13.1c14.6,6.5,29.8,12,43.3,20.9c0.2,0.1,0.5,0.1,0.7,0.1
		c-4.3-3.4-8.6-6.9-13.3-9.5c-9.5-5.3-19.1-10.4-28.8-15.3c-7.2-3.5-14.2-7.4-20.9-12C253.5,31.5,250.8,29.4,248,27.4z M289.3,155.3
		c-5.8,7.4-11.2,14.4-16.7,21.5c3.1,0.3,6.2,0.4,7.7,3.8c3.8-2.7,7.5-5.3,11.1-7.9c0.6-0.5,1.2-1.1,1.7-1.7c1-1.2,1.4-2.4,0.7-4
		c-0.6-1.2-0.9-2.6-1.3-3.8C291.5,160.7,290.5,158.2,289.3,155.3z M330.9,340.9c0.1,0.2,0.3,0.3,0.4,0.5c4.2-2.2,8.3-4.3,12.5-6.5
		c2.5-1.4,3.1-2.6,2.5-5.5c-0.8-4.5-3.2-8-6.8-10.7c-3.7-2.8-7.7-3-11.8-1.4c-3.1,1.2-4.2,3.8-5,7c7.2-3.1,11.4-3.5,14.5-1.5
		c-2.9,1.3-6.1,1.7-8.6,4c3.9-0.7,7.6-0.4,11.5,1.2c-7.7,2.2-9.5,3.1-10.8,5c4,0.3,7.8-1.5,12.2-1.3c-1.4,2.4-3.2,3.7-5.2,4.7
		C334.2,337.4,332.6,339.1,330.9,340.9z M286.2,288.3c-2.9-0.3-5.7-0.7-8.6-1c2,1.6,4.1,2.7,6,4.1c1.9,1.5,3.7,3.2,5.5,4.9
		c6.5-6.7,5.8-18.7-1.9-26c-2.7,1.1-5.4,2.3-8.6,3.6c2.8,1,5.4,0.7,7.9,2.7c-3.6,0.5-6.6,1-9.7,1.4c3.2,1.6,6.7,2.2,9.5,4.4
		c-2.9-0.1-5.8-0.3-8.8-0.4c0,0.2-0.1,0.4-0.1,0.5C280.7,283.9,283.7,285.6,286.2,288.3z M372.4,239c0.3-0.5,0.4-0.7,0.5-0.9
		c1.9-4.6,3.9-9.3,5.7-14c0.3-0.8,0.2-2-0.2-2.8c-0.5-1.3-1.2-2.6-2.2-3.7c-3-3.5-6.8-5.8-11.2-7c-1.7-0.5-3.5-0.5-5.2,0
		c-0.4,0.1-1,0.3-1.2,0.6c-1.1,1.4-2.1,2.8-3.2,4.3c3.1-0.7,6-2,9.6-1.5c-1.2,1-2.2,1.7-3.1,2.4s-1.8,1.4-2.6,2.1
		c-0.8,0.7-1.6,1.5-2.4,2.3c3.9-0.7,7.3-2.7,10.9-3.8c0.1,0.2,0.2,0.3,0.3,0.5c-1.3,1.8-2.5,3.5-3.8,5.3c0.1,0.1,0.2,0.2,0.3,0.4
		c2.5-1.5,4.9-2.9,7.6-4.5c0.2,2.6-1.3,4.3-2.6,6.5c2.2-0.7,4-1.2,5.7-1.8c0.1,0.2,0.2,0.3,0.3,0.5c-1.8,3.5-4.7,5.6-8.9,6.5
		C369.5,232.9,371.2,235.5,372.4,239z M301.5,270.3c2.4,1.4,5.1,1.8,7.4,4.1c-3,0.2-5.5,0.4-7.9,0.6c2.5,2.3,6,2.5,8.9,4.6
		c-4.3,1.6-8.2,1.5-12.1-0.1c-0.1,3.5-0.1,3.4,2.7,4.5c1,0.4,1.9,0.8,2.8,1.3c1.9,1.1,3.8,2.2,5.7,3.3c5.8-6.3,4.9-22-1.5-28.3
		c-3.5,1.8-7.1,3.7-11.1,5.7c2.7,0.2,4.9,0.3,7.1,0.6c2.1,0.3,4.3,0.6,6.3,2.3C306.7,269.5,304.1,269.9,301.5,270.3z M334,87
		c-0.3-0.7-0.3-1-0.5-1.1c-3.9-2.7-7.5-5.8-11.7-7.9c-12.1-6-24.8-8.6-38.4-6.5c-6.1,1-12.1,2.5-17.4,5.8c-1.1,0.7-2.1,1.6-3.1,2.3
		c0.1,0.2,0.2,0.3,0.2,0.5c7.6-3.2,15.6-4.5,23.7-5.2c8.3-0.7,16.4-0.1,24.5,1.9C319.4,78.8,326.4,82.9,334,87z M279.6,329.6
		c0.2,0,0.4,0.1,0.6,0.1c0.3-1.4,0.7-2.7,1-4.1c0.2-1.3,0.2-2.7,0.3-4.1c0.2,0,0.4,0,0.7,0c2.2,3.2,2.4,6.8,2.2,10.7
		c1.8-1.7,3.6-3.4,5.6-5.3c0.5,3.3-1.7,5.5-2.8,8.3c2.3-0.3,4.4-0.5,7-0.8c-1.7,2.2-3.8,2.9-5.6,4.3c3.4,1.3,6.6,2.5,10.1,3.9
		c0.1-1.5,0.4-2.9,0.4-4.3c0-0.8-0.4-1.7-1-2.3c-3.2-3.1-5.3-6.8-5.9-11.2c-0.1-0.7-0.4-1.4-0.8-1.9c-2.8-2.9-6.1-4.9-10.1-5.5
		c-1.6-0.2-3.3-0.5-5.1,0.5C278.1,321.5,279.4,325.4,279.6,329.6z M257.7,64.1c0.1,0.3,0.1,0.5,0.2,0.8c7.2-0.2,14.5-0.6,21.7-0.5
		c7.3,0.1,14.6,1,21.6,3c6.9,1.9,13.6,4.6,20.4,6.9c-0.4-0.6-0.9-1-1.4-1.3c-11.6-7.4-24.4-11.5-38-12.8c-7.4-0.7-14.7,0.3-21.7,2.8
		C259.5,63.3,258.6,63.7,257.7,64.1z M305.8,298c-1.3,4-4.4,5.6-7.3,7.5c4-0.2,7.3-2.1,11.4-3.5c-0.5,0.8-0.7,1.4-1,1.7
		c-1.7,1.5-3.4,3.1-5.2,4.5c-0.9,0.7-1.9,1.3-2.5,2.9c5.5-3.1,10.4-6.2,15.2-9.8c-5.1-6.3-11-11-18.5-14c-0.7,4.4-2.6,8-5.2,11.4
		c1.4-0.5,2.6-1.2,3.8-1.9c1.2-0.7,1.9-2.3,3.7-2.6c0.1,2.8-1.7,4.5-2.8,6.8C300,300.1,302.7,299.1,305.8,298z M387.8,223.2
		c1.3,0.7,2.5,1.4,3.6,2.1c0.2-0.3,0.3-0.4,0.3-0.5c-0.2-5-0.3-10.1-0.5-15.1c0-0.5-0.3-1.1-0.6-1.5c-3.6-5.4-9.6-8.1-15.3-6.6
		c-2.7,0.8-5.4,2-8,3.1c-0.4,0.2-0.8,0.6-1.2,1c1.8,0.7,3.5,1.3,5.1,2.1c1.5,0.7,2.9,1.6,4.3,2.6s2.6,2.1,4.1,3.3
		c0.3-2.8-1.1-4.9-1.9-7.3c3.1,1.6,4.4,4.3,6.3,6.7c0-1.9,0-3.8,0-6.1c2.8,3.1,3.1,6.5,3.4,10.4c1.6-2.6,1.7-5,1.6-7.6
		C391.4,213.1,391,217,387.8,223.2z M359.8,287.7c0.1,0.2,0.1,0.4,0.2,0.7c4.9-0.6,9.1-3,14-4.8c-1.3,2.6-3.3,4.1-5.2,6.2
		c3.9,0.1,6.6-2.3,9.9-4c-0.2,3.2-2.6,4.6-3.7,7c1.4-0.5,2.9-1.1,4.5-1.7c-1.3,2.8-3.4,4.5-5.6,6.1c0.8,1.2,1.5,2.2,2.4,3.5
		c0.5-1,1-1.7,1.3-2.5c1.4-3.2,2.7-6.5,4.2-9.7c0.9-1.8,0.5-3.1-0.5-4.7c-2.6-3.9-6.7-5.6-10.9-6.9c-0.3-0.1-0.8,0.1-1.1,0.2
		c-2.6,1-5.2,2-7.8,3c-2,0.8-4,1.8-5.4,3.4c-0.3,0.3-0.5,0.8-0.9,1.5c7.2-3.7,12.4-5,15.1-3.9C366.8,283.4,363.3,285.6,359.8,287.7z
		 M269,372.5c1.2-0.3,1.3-0.9,0.9-1.8c-1.1-3.1-3.2-5.2-6.1-6.4c-8.8-3.9-17.4-3.3-25.6,1.7c-1.9,1.2-3.5,2.8-4.4,5
		c-1,2.3-1,4.5,0.3,6.7c1.2,2,2.3,2.5,4.9,2.1c-0.1-0.2-0.1-0.5-0.2-0.7c-1.6-3.9-0.9-7.2,2.3-9.9c1.7-1.4,3.6-2.4,5.7-2.9
		c7.8-1.7,14.9-0.2,20.9,5.3C268.2,371.9,268.6,372.2,269,372.5z M233,309.7c0.1,1.3,0.6,2.2,1.4,2.9c2.4,2,6.6,2.1,9.7,0.2
		c2.8-1.8,4.3-4.8,3.3-8c-0.6-2-1.6-4.1-2.9-5.7c-3.1-4-9.4-3.5-12.1,0.7c-1.4,2.2-1.4,4.6-0.1,6.8c1.2,2.1,3.1,3.2,5.6,3
		c2.6-0.2,4.5-2.6,4.1-5.2s-3.3-4-5.2-2.2c-0.3,0.2-0.6,0.4-0.9,0.7c-0.3-1.9,0-2.6,1.3-3.3c1.8-0.9,4.2-0.4,5.3,1.3
		c0.7,1.1,1.3,2.4,1.7,3.7c0.9,3.3-0.7,5.8-4,6.6c-1.5,0.3-2.8,0.1-4.2-0.6C235,310.3,234.2,309.5,233,309.7z M218.8,305.9
		c6.2,6.8,7.2,12.9,3.1,18.3c-4,5.3-10,6.2-17.3,2.6c-1.3,2.7-1,3.5,1.6,4.6c0.8,0.3,1.7,0.6,2.5,0.8c9.7,1.9,19-5.3,19.5-15.2
		c0.2-4.9-1.7-9-5.6-12.1c-1.3-1-1.7-1-2.9,0.1C219.5,305.2,219.2,305.5,218.8,305.9z M301.6,161c1.7-0.4,3.2-0.8,4.7-1.1
		c1.7-0.3,3.2-1.1,4.3-2.4c2.2-2.8,4.4-5.6,6.6-8.5c0.5-0.6,0.7-1.4,1-2.1c-1.9-1.6-3.8-1.1-5.6-0.4c-4.1,1.7-8.2,3.5-12.3,5.3
		c-0.3,0.1-0.5,0.3-0.8,0.5C300.3,155.3,300.9,158.1,301.6,161z M236.7,347.8c-0.1-0.1-0.2-0.2-0.3-0.4c-0.7,0.4-1.3,0.9-2,1.3
		s-1.5,0.7-2.2,1.1c-0.1-0.1-0.1-0.2-0.2-0.3c1.2-1.2,2.5-2.3,3.7-3.5c-0.1-0.2-0.2-0.3-0.4-0.5c-1.8,1-3.6,1.9-5.4,2.9
		c-0.1-0.1-0.1-0.3-0.2-0.4c1.3-1.1,2.5-2.1,3.8-3.2c-0.1-0.1-0.1-0.2-0.2-0.4c-1.5,0.7-2.9,1.3-4.4,2c-0.1-0.1-0.1-0.2-0.2-0.3
		c1.2-1,2.3-2,3.5-3c0-0.1-0.1-0.2-0.1-0.3c-1.5,0.4-2.9,0.8-4.4,1.2c0-0.1-0.1-0.1-0.1-0.2c0.8-0.6,1.6-1.2,2.4-1.8
		c-0.4-0.2-0.8-0.3-1.3-0.5c0.9-0.5,1.7-0.9,2.5-1.3c-1.5-0.3-2.9-0.2-4.3,0.2c-0.6,0.1-1.1,0.8-1.6,1.3c-0.7,0.7-1.2,1.7-1.9,2.4
		c-0.9,0.8-1.3,1.6-0.7,2.7c0.7,1.3,0.6,2.6,0.5,4c-0.3,3.1,0.8,4.2,3.9,4.2c1.6,0,3.2,0.1,4.7,0.5c2,0.6,3.6,0.2,4.9-1.4
		c1.8-2,2.3-4.4,1.5-6.4c-2.2,2.9-2.2,2.9-3.7,3.3C235.2,349.9,235.9,348.9,236.7,347.8z M338.6,235.6c3.2-1.2,5.9-2.2,8.5-3.1
		c2.7-1,5.5-1.2,8.8-0.4c-2.2,1.3-4.4,1.7-6.2,3.8c3.4-0.6,6.2-1.2,9-1.7c0.1,0.2,0.2,0.3,0.2,0.5c-1.1,1-2.1,2.1-3.2,3.1
		c0.1,0.1,0.2,0.3,0.3,0.4c2-0.8,4.1-1.6,6.4-2.5c-0.2,2.5-2.1,3.8-3.6,6c2.5-0.9,4.5-1.5,6.6-2.3c-0.2,2.4-2.3,3.4-3.3,5.5
		c2-0.4,3.7-0.8,6-1.3c-1,1.7-1.8,3-2.5,4.2c-1.4,2.3-1.4,2.3-1,4.3c1.5-2.5,3-4.8,4.4-7.1c0.3-0.4,0.3-1.1,0.2-1.6
		c-0.7-4-2.4-7.4-5.7-10c-5.7-4.6-12.2-5.1-19.1-3.7c-0.5,0.1-1.1,0.4-1.4,0.8C341.6,232.1,340.3,233.7,338.6,235.6z M263,354.8
		c0.6-0.3,1.1-0.4,1.5-0.6c1.2-0.7,2.3-1.5,3.5-2.1c4.1-1.9,8.7,0.5,9.3,4.9c0.2,1.6-0.3,2.8-1.5,3.5c-1.5,0.9-3.2,0.7-4.5-0.5
		c0.5-0.5,1.1-0.9,1.5-1.5c1-1.3,0.8-3.2-0.4-4.4c-1.2-1.2-3.2-1.4-4.3-0.2c-1.1,1.2-1.9,2.7-2.6,4.2c-0.3,0.5-0.1,1.3,0.1,1.9
		c0.8,3.1,3.8,5.3,7,5.1c3.6-0.1,6.6-2.5,7.2-5.6c0.8-4.4-1.9-8.9-6-10.2C270.1,348.1,264.2,350.1,263,354.8z M284.7,345.3
		c0.1-0.1,0.3-0.2,0.4-0.3c2.4,1.8,3.3,4.6,4.4,7.4c1.1-1.4,2-2.6,2.9-3.7c0.2,0.1,0.4,0.1,0.5,0.2c-0.3,1.8-0.5,3.6-0.8,5.5
		c2-0.7,3.1-2.6,5.3-3.1c0,2.4-2.2,3.5-2.9,5.8c2.7-1.5,5.1-2.8,7.5-4.1c-2.7-7.5-20-13.7-26.2-9.6c1.7,1.1,3.4,2.1,5,3.3
		c1.6,1.2,3,2.7,4.8,4.5C285.3,348.8,285,347.1,284.7,345.3z M255.7,289.6c3.6,5.8,3.6,5.8,2.9,7.3c-1.5-0.9-2.9-1.8-4.5-2.7
		c0,3.4,0,6.6,0,9.9c0.7-0.3,1.2-0.4,1.7-0.6c2.4-1.3,4.1-3.3,5.4-5.7c2.5-4.7,3.2-9.6,2.6-14.8c-0.1-1.1-0.5-2.3-0.7-3.6
		c-2.6,0.9-4.9,1.7-7.2,3c1.9,0.4,3.4,0.7,4.9,1c0,0.2,0,0.4,0,0.6c-1.7,0.6-3.4,1.3-5.2,2c1.7,1.3,4,1.2,5.3,3.3
		C259,289.3,257.5,289.4,255.7,289.6z M319.4,334.2c-0.7,0.6-1.2,1.2-1.8,1.7c-2.3,2.1-5,3.5-8.1,3.8c-1.7,0.2-2.6,1-3.7,2.7
		c2.8-0.8,5.2-1.5,7.6-2.1c0.1,0.1,0.1,0.3,0.2,0.4c-1.4,1.3-2.7,2.7-4.3,4.3c3-0.5,5.3-2.2,8.5-2.3c-0.9,0.9-1.3,1.5-2,1.9
		c-1.7,1.2-3.4,2.4-5.1,3.6c-0.9,0.6-1.8,1.1-2.2,2.4c4.2-1.1,14.2-5.2,16.2-6.7C324.7,340.3,323.1,337.4,319.4,334.2z M381.8,269.6
		c0.2-0.1,0.5-0.1,0.6-0.3c1.2-1.5,2.4-3.1,3.7-4.8c1.1,2.8-0.3,5.3-1,7.9c2.8-1.5,2.8-1.5,3.3-4.2c0.1-0.7,0.3-1.4,0.4-2.1
		c1-6.6-3.3-12.8-10.1-14.1c-0.3,5.2-0.6,10.4-0.9,15.6c1.9-1.6,2.9-3.9,3.7-6.4C382.9,263.5,382.9,263.7,381.8,269.6z M200,342.2
		c-0.6,0.8-0.9,1.1-1,1.5c-2.7,6.3-2.5,12.5,0.9,18.4c4.8,8.5,12.3,13.4,21.8,15.4c1.5,0.3,3.1,0.2,4.7,0.2
		c-0.4-0.6-0.8-0.7-1.2-0.8c-5.7-1.6-11-4.1-15.5-7.9c-7.7-6.5-11.9-14.5-9.7-24.9C200.1,343.7,200,343.3,200,342.2z M317.3,277.4
		c-0.4,2.1-0.7,3.9-1.2,5.6c-0.5,1.8-1.3,3.4-2,5.1c1.5-0.8,2.7-1.8,3.7-3s1.7-2.6,2.8-4.2c0.7,3.9-1.1,6.6-2.5,9.6
		c2-1.4,4.1-2.9,6.5-4.6c-0.6,3.1-2.4,4.9-3.6,7.1c0.1,0.1,0.3,0.2,0.4,0.4c1.7-1.4,3.4-2.7,5.6-4.4c-0.5,2-0.9,3.4-1.5,5.5
		c2.3-1.9,4.2-3.5,6.2-5.1C328.3,283.5,323.7,279.6,317.3,277.4z M247.3,344c1.6,1.4,2.8,2.5,4,3.6c-1.9-0.5-3.4-1.7-5.6-1.9
		c1.5,1.3,2.7,2.3,3.9,3.3c-0.1,0.1-0.2,0.3-0.3,0.4c-1.4-0.7-2.7-1.4-4.1-2.1c-0.1,0.1-0.1,0.2-0.2,0.3c0.9,1,1.7,2,2.6,3
		c-0.1,0.1-0.2,0.2-0.3,0.2c-1-0.7-2.1-1.4-3.5-2.3c0.6,1.3,1,2.2,1.4,3c-0.1,0.1-0.2,0.1-0.3,0.2c-1-1.1-2.1-2.3-3.1-3.4
		c-0.2,1.5,0,2.9,0.4,4.1c0.6,1.7,1.8,2.7,3.8,2.7c1.2,0,2.5,0.3,3.7,0.6c2.2,0.6,3.2,0.2,3.9-1.9c0.4-1.2,0.9-2.1,2.2-2.6
		c1.1-0.5,1.3-1.3,0.7-2.3c-0.3-0.6-0.8-1.2-1.3-1.7c-1-0.9-1.6-1.8-1.8-3.2c-0.1-0.8-0.9-1.7-1.6-2.2c-1.4-0.9-2.9-1.3-4.9-0.8
		c1.3,0.4,2.3,0.8,3.4,1.2c-0.5,0.3-0.8,0.5-1.1,0.7c0.6,0.5,1.1,0.9,1.6,1.4c-0.1,0.1-0.1,0.2-0.2,0.3
		C249.7,344.3,248.7,344.2,247.3,344z M390.4,200.9c-0.5-3.4-0.9-6.4-1.4-9.5c0-0.2-0.1-0.5-0.3-0.7c-2.7-3.7-6.1-6.3-10.9-6.5
		c-2.2-0.1-4.1,0.4-4.8,2.9c-0.2,0.8-0.8,1.6-1.1,2.4c-0.5,1-1,2.1-1.5,3.1c2.8-2,5.1-4.6,9.2-5.4c-1.4,2.4-2.6,4.3-3.7,6.3
		c2.7-1,4.6-3.3,7.9-4.4c-0.5,1.2-0.8,1.8-1.1,2.5c-0.3,0.7-0.7,1.4-1.1,2.1c0.1,0.1,0.3,0.2,0.4,0.3c1.5-0.9,3-1.7,4.7-2.7
		c-0.5,2.2-0.5,2.2-3.2,5.6C385.7,198.2,387.8,199.4,390.4,200.9z M382.1,227.6c1.7,5.8,0.1,11.2-1.5,17.1c2.8-2.3,3.5-5.2,4.6-8.2
		c1.4,2.5,0.6,4.9,0.8,7.2c0.6-0.8,1.1-1.6,1.5-2.4c0.4-0.9,0.8-1.8,1.2-2.7c0.2,0,0.3,0.1,0.5,0.1c0,2.1,0,4.2,0,6.5
		c1.3-0.7,2-1.5,2.1-2.7c0.1-3,0.3-5.9,0.4-8.9c0-0.5-0.1-1.1-0.3-1.6C389.9,229.5,385.6,227.2,382.1,227.6z M235,330
		c0.1-0.1,0.2-0.2,0.3-0.3c0.8,0.8,1.7,1.5,2.8,2.5c-0.3-1.2-0.6-2.2-0.9-3.5c2,1.4,2.4,3.3,3.1,5.6c0.2-1.2,0.3-2,0.4-2.8
		c0.4,0.5,0.6,0.7,1,1.2c0.5-1.5,0.3-2.5-0.7-3.2c-1-0.6-1.2-1.4-1.1-2.4c0.1-0.6,0-1.3-0.1-1.9c-0.6-2.8-3.3-3.7-5.5-1.9
		c-1,0.8-2.1,1.5-3.2,2c-1,0.5-1.5,1.3-1.9,2.3c-0.4,1.3-1,2.5-1.7,3.6c-0.6,1-0.8,1.9-0.1,2.9c0.9,1.5,3.6,2.9,5.8,3
		c-1.2-1-2.3-1.8-3.4-2.7c0.1-0.1,0.2-0.2,0.2-0.3c1.1,0.4,2.1,0.8,3.2,1.2c0.1-0.1,0.2-0.2,0.2-0.4c-0.9-0.7-1.7-1.4-2.6-2.1
		c0.1-0.1,0.2-0.3,0.3-0.4c1,0.4,2.1,0.9,3.6,1.5c-1-1.1-1.7-1.8-2.3-2.5c0.1-0.1,0.2-0.2,0.2-0.3c1.2,0.8,2.5,1.5,3.7,2.3
		c0.1-0.1,0.2-0.2,0.3-0.3C236.1,332.1,235.6,331,235,330z M193.1,354.3c-1.8,3.6-2.2,7.4-1.2,11.2c1.9,8,10.9,14.3,20.1,14
		c-1-0.5-1.7-0.8-2.3-1.2c-2.4-1.5-5-2.9-7.3-4.6c-4.7-3.4-7.5-8.2-8.5-13.9C193.5,357.9,193.3,356,193.1,354.3z M244.6,380.1
		c-1-3.3,0.4-5.6,2.9-7.3c2.7-1.8,5.7-2.3,8.9-1.7c2.9,0.6,5,2.3,6.2,5.3c1.3-0.7,2.4-1.4,3.6-2.1c-1.1-1.7-2.5-2.7-4-3.4
		c-4-2.1-8.3-2.9-12.8-2.1c-2,0.3-4.1,1-5.8,2c-3.2,1.8-3.8,4.8-2.2,8C242.2,380.2,243,380.8,244.6,380.1z M253.6,47.4
		c1.9,1.1,27.1,10.5,29.8,11c0.3,0.1,0.7,0,1.2,0C279.3,52.3,260.7,45.7,253.6,47.4z M205.1,324.9c6,3.6,12.7,1.8,15.6-3.2
		c2.8-4.9,1.2-11-3.8-14.1c-0.5,0.6-1.1,1.2-1.6,1.9c0.7,0.5,1.2,0.8,1.6,1.1c3.5,2.8,3.8,7.3,0.5,10.4c-2.6,2.4-5.6,3.3-9.1,2.4
		c-0.8-0.2-1.5-0.5-2.3-0.7C205.7,323.5,205.4,324.1,205.1,324.9z M248.6,338.4c0,0.1,0.1,0.2,0.1,0.3c1.2-0.1,2.4-0.3,3.5-0.5
		c1-0.2,1.8-0.5,1.8-1.8c0-0.7,0.4-1.4,0.7-2c0.8-1.8,0.7-2.1-0.8-3.5c-0.8-0.7-1.5-1.4-2.1-2.3c-1-1.4-2.1-2-3.7-1.3
		c-2.2,1-3.8,2.7-4.2,5.5c1.5-0.8,2.8-1.5,4-2.2c0.1,0.1,0.2,0.2,0.3,0.4c-0.6,0.7-1.3,1.5-2.2,2.5c1.5-0.4,2.7-0.7,3.9-1
		c0,0.1,0.1,0.2,0.1,0.3c-1.1,0.8-2.3,1.5-3.4,2.3c0.1,0.1,0.1,0.2,0.2,0.4c0.9-0.2,1.8-0.4,2.7-0.5c-0.3,0.6-0.8,0.8-1.3,1.2
		c-0.4,0.3-0.8,0.7-1.2,1c0.1,0.1,0.1,0.2,0.2,0.3c1.3-0.3,2.5-0.7,3.8-1c0,0.1,0.1,0.2,0.1,0.4
		C250.4,337.2,249.5,337.8,248.6,338.4z M207.4,349.2c-0.3,0.4-0.7,0.6-0.8,0.9c-0.2,0.7-0.3,1.4-0.3,2.1c0,8.3,7.9,17.1,16.1,18.1
		c0.7,0.1,1.4,0,2.1-0.1c-5.5-2.2-9.7-5.8-13.1-10.4c-2.2-2.9-3.8-6.1-3.7-9.9C207.7,349.8,207.6,349.6,207.4,349.2z M387.4,183
		c-1.6-7-3.6-13.5-6.3-19.9c-1.2,5-2.4,9.7-3.6,14.5c0.1,0.1,0.2,0.1,0.3,0.2c1.2-2.2,2.3-4.5,3.5-6.7c0.1,0,0.3,0.1,0.4,0.1
		c0.2,1.5,0.4,2.9,0.6,4.4c0.1,0.1,0.2,0.2,0.4,0.3c0.3-0.6,0.5-1.3,0.8-1.9c0.2,0.2,0.4,0.3,0.6,0.5c0.5,2.2-0.5,4.1-1.2,6.2
		C384.3,181.3,385.7,182,387.4,183z M251.3,128.1c5.6-3.2,10.3-7.1,11.5-13.9C258.3,118.3,254.5,122.9,251.3,128.1z M236.1,340.5
		c0,1.8,1.8,3.4,3.7,3.4c1.6,0,2.8-1.4,2.8-3.3s-1.4-3.3-3.1-3.2C237.5,337.5,236,338.9,236.1,340.5z M374.4,257.4
		c-3,0.6-5.7,1.1-8.4,1.6c-1.9,0.3-1.9,0.2-2.6,2.5c3.8,0.4,7.5,0.4,11-1.3C374.4,259.1,374.4,258.2,374.4,257.4z M372.9,245.9
		c1.9-0.6,3.7-0.9,4.3-2.8c0.8-3.1,1.4-6.2,2.1-9.3c0.1-0.4-0.1-0.9-0.2-1.5C377,236.9,375,241.2,372.9,245.9z M374.7,252.5
		c-1.8,0.4-3.4,0.9-5.1,1.2c-2.3,0.4-2.5,0.6-3.2,3.1c2.7,0.2,5.4,0.2,8-0.7C374.5,254.8,374.6,253.7,374.7,252.5z M352.8,281.1
		c-1.8,0.1-3.2,0.4-4.6,0.3c-1.9-0.2-3,0.6-4,2.4c2.3,0.3,4.3,0.5,6.4,0.8C351.2,283.4,351.9,282.4,352.8,281.1z M375.7,246.8
		c-1.1,0.5-2.1,1.3-3.2,1.5c-1.8,0.4-2.4,1.5-2.9,3C374.2,251.6,375.5,250.7,375.7,246.8z"/>
	
		<linearGradient id="SVGID_00000138538311545802416520000010725887397017537936_" gradientUnits="userSpaceOnUse" x1="-4.080584e-02" y1="202.3572" x2="227.6" y2="202.3572">
		<stop  offset="5.618000e-03" style="stop-color:#F0CC7E"/>
		<stop  offset="0.1854" style="stop-color:#E8C47E"/>
		<stop  offset="0.5955" style="stop-color:#C78A03"/>
		<stop  offset="0.7927" style="stop-color:#E3B75E"/>
		<stop  offset="0.8708" style="stop-color:#EFCA84"/>
		<stop  offset="1" style="stop-color:#F4E7CF"/>
	</linearGradient>
	<path style="fill:url(#SVGID_00000138538311545802416520000010725887397017537936_);" d="M52.8,75.2c-2.8-4.1-3.9-8.3-3.1-12.9
		c0.4-2.3,1.3-4.3,3.1-5.8c0.9-0.7,1-1.5,0.9-2.5c-0.1-1.7-0.3-3.5-0.1-5.3c0.5-5.6,2.6-10.4,8.1-12.9c0.2-2.4,0.3-4.7,0.7-7
		c1.4-7.6,7.4-13.4,14.9-14.3c1.9-0.2,3.8,0.1,5.9,0.2c0.3-0.5,0.5-1.2,0.9-1.8c1.6-2.5,3-5.1,4.9-7.4c2.1-2.7,5-4.4,8.4-5.3
		c5-1.2,9.7,0.8,12.2,5.4c2.5,4.4,2.7,9.1,2,14c-1.2,8.4-4.3,16.2-7.7,23.9c-1.7,3.9-3.7,7.6-5.8,11.7c0.8-0.3,1.4-0.5,1.9-0.8
		c4.5-2.9,9.2-5.6,13.5-8.7c10.2-7.3,21.1-12.6,33.6-14.5c6.8-1,13.5-1.1,20.3-0.4c1.2,0.1,2.4,0.3,3.6,0.4c0.2-0.4,0.5-0.7,0.6-1
		c2.6-5.3,6.9-8.5,12.5-10.1c1.5-0.4,2.9-0.8,4.4-1c3.3-0.5,6.1-1.8,8.5-4.3c0.3,1.3-0.4,2.1-0.9,2.9c-1.7,2.3-3.9,3.8-6.5,4.7
		c-2,0.7-4.1,1.4-6,2.3c-3.4,1.5-6,3.8-7.6,7.3c1,1,2,0.8,3.1,0.7c6.1-0.8,12-0.3,17.6,2.2c6.5,2.9,10.7,7.7,11.8,14.9
		c0.5,3.6,0.1,7.2-1,10.7c-0.7,2.1-1.6,4.2-2.5,6.2c-0.3,0.6-0.6,1.3-0.9,2c0.4,0,0.7,0.1,0.9,0c4-1.1,7.9-0.9,11.9,0
		c2,0.4,4.1,0.9,6.2,0.2c1.6-0.6,3.1-1.5,4.5-2.2c-1,3.3-4.4,5.8-8.4,6c-1.3,0.1-2.7-0.1-4.1-0.2c-3.6-0.4-7.1-0.5-10.7,0.7
		c-1.6,0.5-2.4,1.4-2.9,3c-3.6,11.2-9,21.5-16.4,30.7c-3.7,4.6-7.9,8.6-12.7,11.9c-9.8,6.7-19.5,13.4-30.4,18.3
		c-0.2,0.1-0.3,0.2-0.9,0.7c1.1,0,1.8,0,2.5,0c5.8,0,11.5,0.8,17,2.8c7,2.5,12.3,7.1,15.3,14c2.6,5.9,1.5,12.1-2.6,16.2
		c-2.7,2.7-6.2,3.9-10,4.2c-3.6,0.4-7.2,0.2-10.7-0.8c-0.4-0.1-0.8-0.1-1.3-0.2c-0.4,0.8-0.8,1.6-1.2,2.4c-3.1,6-8.9,8.6-15.5,7
		c-3.8-0.9-7.1-2.7-10.2-5.2c-0.6-0.5-1.2-1-1.9-1.6c-0.6,0.8-1.2,1.6-1.8,2.4c-3.4,4.2-8.1,5.1-12.9,2.5c-2.8-1.5-4.9-3.9-6.2-6.8
		c-0.4-0.8-0.7-1.6-1-2.3c-0.2-0.1-0.2-0.2-0.3-0.2c-5.2-0.2-7.3-3.7-6.8-8.4c0.2-1.9,0.9-3.8,1.4-6c-0.7,0.3-1.3,0.6-1.9,0.9
		c-9.3,5.3-17.6,11.9-25.3,19.4c-13.9,13.8-26,28.9-35.7,46c-2.6,4.5-4.7,9.3-6.7,14c-2.7,6.5-2.5,13.2,0,19.6
		c3,7.7,6.8,15,11.7,21.7c5.2,7.1,10.8,13.9,16.8,20.3c9.5,10.2,21.3,15.6,34.9,17.4c12.1,1.7,23.3-1.5,33.8-7.5
		c12-6.8,20.5-17,27-28.9c0.5-0.9,0.8-1.9,1.2-2.9c0.3-0.7,0.4-1.3,0.7-2.2c-14.9-6.4-24.9-17.2-29.6-32.7
		c-3.7-12.3-2.7-24.4,2.8-36c11-23.5,38.2-34.6,62.7-25.8c24.4,8.7,38.3,34.6,31.9,59.9c-3.6,14.3-12,25.2-25,32.2
		s-26.6,7.8-40.8,3.3c11.2,23.6,3.9,45.4-14.4,57.9c12.1,10.9,18.3,24.6,20.3,40.6c1.1,9-0.1,17.9-2.3,26.6
		c-0.1,0.5-0.3,0.9-0.5,1.4c-1.1,2.2-3.2,2.5-4.8,0.6c-0.2-0.2-0.3-0.4-0.4-0.6c-5.5-8.9-13.4-15.2-22.4-20.2
		c-6.7-3.8-13.7-7.4-20.5-11c-13.4-7.1-26.3-15.1-38.5-24.3C47,330.1,30.8,307.7,19,281.8c-4.7-10.7-9-21.7-12-33.2
		c-1.2-4.8-2.1-9.7-2.2-14.7c0-2-0.7-3.9-1.1-5.9c-3.1-15.6-4.3-31.4-3.5-47.3c0.4-7.4,0.8-14.9,1.5-22.3c1.3-13.7,5.5-26.6,11-39.1
		c5.9-13.5,14.5-25,25.9-34.4c3.8-3.1,8.1-5.7,12.1-8.6C51.3,76,52,75.7,52.8,75.2z M39,137.4c-1.7,0.7-3.3,1.4-5,2.1
		c-1.8,0.7-3.6,1.3-5.3,2.2c-4.5,2.6-5.9,6.8-6.2,12.1c4.2-2.3,8.4-3.1,12.8-2.8c0.4,0,0.8-0.6,1.5-1.1c-3.9-0.7-7.5-1.4-10.5-3.4
		c4,0.4,7.9,1.7,11.9,0.6c-3.1-0.6-6.2-0.9-8.9-2.5c1.6-0.1,3.2,0.1,4.8,0.1c2,0,4-0.2,6-0.4c0.6-0.1,1.5-0.2,1.5-1.2
		c-2.9-0.3-5.9-0.2-8.7-1.4c4.1-0.8,8.3-0.6,12.2-2.3c-0.7-0.4-1.4-0.5-2-0.7C41.7,138.2,40.3,137.8,39,137.4
		c2.6,0.9,5.1,0.3,7.7-0.3c0.6-0.1,1.1-0.6,1.9-1.1c-3.3-1-5.6-0.7-7.9,0.6C40.2,136.9,39.6,137.1,39,137.4z M48,123
		c2.9,1.4,5.7,2.9,8.9,3.4c1.4,0.2,2.3-0.2,3-1.3c-9.1-5.5-9.1-5.5-9.8-7.9c3.6,2.3,7.3,4.1,11.4,5.1c1.9,0.4,1.9,0.4,3.2-1.4
		c-0.8-0.3-1.5-0.6-2.2-0.8c-3.2-1.2-6.2-2.6-8.8-4.8c-1.4-1.3-1.6-1.7-1.9-3.3c5,3.6,10.7,5,16.6,5.9c0.3,0.1,0.7-0.2,1.5-0.5
		c-0.9-0.3-1.5-0.5-2-0.7c-2.7-1.1-5.6-2-8.2-3.4c-1.9-1-3.5-2.7-5.3-4.1c-0.3-0.3-0.5-0.8-1-1.7c4.4,2.9,8.6,4.9,13.2,5.7
		c-1.4-1-2.8-1.8-4.2-2.8s-2.6-2.2-3.9-3.4c0.1-0.2,0.2-0.3,0.3-0.5c5.3,2.5,10.4,5.5,16.4,6.2c-1.9-1.2-3.9-2.1-5.9-3.2
		c-1.9-1.1-3.9-2.2-5.1-4.2c0.9,0.1,1.7,0.5,2.5,0.8c3.8,1.6,7.5,3.2,11.6,3.6c0.7,0.1,1.5,0,2.8-0.1c-3.6-2.9-7.6-4-11-6
		c5,0,9.5,1.5,13.9,3.8c0.9-0.6,1.9-1.2,3.1-2c-1.9-1.2-3.5-2.2-5.1-3.1s-3.3-1.6-5-2.4c2.3-0.5,4.4,0,6.4,0.7
		c2,0.8,3.9,1.7,6.4,2.8c-2.6-4-5.9-6.3-9.3-8.6c5.4,0.2,9,3.5,12.3,7.3c-1-2.5-2.7-4.5-4.6-6.2s-4.1-3.1-6.3-4.7
		c3.4-0.1,6.3,1,8.6,3.1c1.8,1.6,3.4,3.6,5,5.5c0.6,0.7,1,0.9,1.8,0C94,94.1,89.6,89.7,83.6,87c5.1-0.3,8.9,2.6,12.8,5.3
		c-2.3-4.2-5.5-7.5-10.4-9.7c2.7,0.2,4.6,0.9,6.3,2.1c2.4,1.7,4.3,3.8,6,6.1c1.2,1.6,2.3,3.3,3.6,5.1c2.1-7.5-4.3-15.6-10.2-16.7
		c-1.7-0.3-3.6-0.3-5.2,0.2c-4.7,1.4-7.2,4.7-7.7,9.6c-0.2,2.1-0.7,4.3-1.4,6.3c-1.5,4.1-4.5,6.6-8.7,7.3c-2.1,0.4-4.3,0.6-6.4,0.8
		c-6.9,0.6-13.6,4-13.7,14.5C48.5,119.7,48.2,121.4,48,123c-0.3,2.1-0.6,4.2-1,6.5c1.4,0,2.9,0.1,4.3,0c1.4-0.1,2.9,0.7,4.4-0.6
		C52.6,127.4,50.1,125.5,48,123z M170,273.4c24.8,0.2,45.1-19.8,45.3-44.8c0.2-24.8-19.9-45.1-44.8-45.3
		c-24.8-0.2-45.2,19.9-45.3,44.8C125.1,252.9,145.1,273.2,170,273.4z M104.4,163.5c-0.8-3.1,0.5-6,1-9.3c-2.6,1.8-4.7,3.6-6,5.9
		c-0.9,1.5-1.5,3.2-1.8,4.9c-0.4,2.5,0.8,3.5,3.3,3.2c1.9-0.2,2.6,0.1,3.3,1.9c0.5,1.2,0.9,2.4,1.5,3.5c1.3,2.4,3.2,4.2,5.9,5
		c2,0.6,3.7,0.3,5-1.4c1-1.2,1.7-2.7,2.3-4.2c1.3-3.6,3.2-4.1,6-1.5c1.2,1.1,2.3,2.2,3.6,3.2c2.2,1.9,4.8,3.2,7.6,4
		c4.6,1.3,8.3-0.6,10.1-5c0.4-0.9,0.5-1.8,0.7-2.8c0.5-2.4,1.8-3.2,4.2-2.5c0.9,0.3,1.8,0.7,2.7,0.9c4.2,1.2,8.5,1.5,12.7,0
		c3.5-1.2,5.4-4,5.5-7.6c0.1-2-0.4-3.8-1.3-5.5c-2.5-4.7-6.2-8.2-11.2-9.9c-3.1-1.1-6.3-1.7-9.5-2.4c-1.8-0.4-3.7-0.7-6-0.3
		c1,0.6,1.7,1,2.3,1.4c7.5,4.3,14.1,9.7,19.9,16.1c0.9,1,1.6,2,2.4,3.1c-9.5-8.7-19.7-16-31.8-20.2c4.2,3.4,8.5,6.5,12.6,9.9
		c6,5.2,10,9.9,10.5,12c-8.6-7.6-18-13.7-28.2-18.8c2.4,3.5,5.1,6.7,7.9,9.8c2.7,3.1,5.6,6,7.9,9.5c-8.1-5.5-15.8-11.4-21.8-19.3
		c-0.1,0.6-0.1,1.2,0,1.7c0.9,3.5,2.4,6.6,4.4,9.5c2.3,3.4,4.8,6.6,7.3,9.8c0.8,1,1.5,2.1,2.3,3.2c-7.9-4.9-14.3-11.2-18-19.9
		c-1.1,5.7,1.3,10.9,1.8,16.4c-1.2,0.2-1.4-0.6-1.8-1.2c-2.1-3.4-3.9-7-4.8-10.9c-0.1-0.5-0.3-0.9-0.6-1.9
		c-2.4,5.9-2.5,11.6-2.4,17.6c-1.7-1.4-2.5-3.7-2.7-8.9c-0.1-3,0.3-6.1,0.4-9.4C108.7,156.3,106.7,159.9,104.4,163.5z M66.8,43.6
		c0.2-0.1,0.4-0.3,0.6-0.4c2.1,2.1,4.4,4.1,6.4,6.5s3.6,5,5.3,7.5c-0.8-3.4-1.8-6.8-3.1-10c-1.3-3.3-2.9-6.4-4.3-9.6
		c4.5,3.6,7.1,8.5,9.8,13.4c-0.9-7.5-3.7-14.4-6-21.5c4.2,4.9,6.6,10.7,9.3,16.4c-0.3-3.5-0.7-7-1.4-10.4c-0.7-3.4-1.7-6.8-2.6-10.1
		c4.7,6.1,6.5,13.4,8.5,20.7c0.3-2,0.3-4,0.3-6c0-1.9-0.1-3.8-0.2-5.8s-0.3-4-0.5-6c-0.2-1.9-0.3-3.8-0.5-5.7
		c3.2,6.8,4.2,14.1,5.3,21.5c2.5-10.4,3.6-21,4.4-31.6c2.3,10,2.2,20.1,1,30.2c0.5-0.5,0.9-1.1,1.2-1.8c1.1-2.9,2.4-5.8,3.3-8.8
		c1.3-4.4,2.5-8.9,3.4-13.5c0.7-3.4,0.4-6.9-1.1-10.1c-1.7-3.6-4.9-4.8-8.6-3.2c-1.3,0.6-2.6,1.3-3.6,2.3c-3.1,2.9-5.5,6.2-7,10.2
		c-0.2,0.7-0.5,1.3-0.8,2c-0.4-0.1-0.7-0.2-1-0.3c-8.4-2.7-15.8,1.7-17.4,10.3c-0.4,2.1-0.3,4.3-0.5,6.4c0,0.8,0,1.5,0,2.3
		c-2.4,0.4-4.4,1.1-5.7,2.9c-1.9,2.7-3.4,5.6-3.4,9c0,2.3,0.2,4.6,0.3,6.9c-2.5,1.5-3.2,2-3.7,3.7c-1.1,3.5-0.6,6.8,1.1,10
		c0.7,1.2,1.7,1.6,2.8,1.2c1.5-0.6,3-1.4,4.5-2.2c-4.7-5.7-4.9-6.1-4.8-8c5.8,4.1,5.8,4.1,8,4.1c-0.7-2-1.3-4-2-5.9
		c-0.7-1.9-1.8-3.7-2.1-5.8c3.8,3.3,6.9,7.1,8.4,12c1.9-0.5,2.2-0.7,2-2.3c-0.4-2-0.8-4.1-1.8-5.9c-1.6-2.9-3.7-5.6-5.6-8.3
		c-0.5-0.7-1.1-1.4-1.6-2.1c3.7,1.3,6.5,3.6,9.3,6C71,50.2,68.3,47.2,66.8,43.6z M85,157.2c-1.4-2.9-2.6-5.5-3.9-8.2
		c-3.6,6.9-7.6,10.3-11.5,9.2c4-3.1,5.8-7.3,6.4-12.3c-4.3,2.1-7.2,5.6-11.1,8.4c0.4-2.5,1.5-4,2.4-5.5c1-1.6,2.1-3.1,3.4-5
		c-4.4,1-7.6,3.6-11.3,5.4c0.7-3.9,3.2-6.5,6.2-9.2c-3.9-0.8-7.1,0.8-10.5,1.6c0.6-4,3.4-6,10.3-7.6c-1.2-1.8-2.3-3.6-3.6-5.5
		c-0.4,0.3-0.9,0.6-1.3,1c-2.1,1.9-4.2,3.9-6.4,5.8c-1.1,1-1.7,2.3-2,3.7c-0.8,4.3,0.3,8.1,2.8,11.6c4.3,6,10.3,9.2,17.6,10
		C77.1,161.1,81.4,160.2,85,157.2z M146.4,314.5c-0.2-0.1-0.3-0.2-0.5-0.3c-0.3,0.2-0.6,0.5-0.9,0.7c-6.6,5.7-14.2,9.4-22.6,11.8
		c-7.9,2.2-15.9,4.5-24.2,4.6c-15.2,0.3-28.9-3.8-40.3-14.3c-1.9-1.7-3.7-3.5-5.6-5.2c-0.4-0.3-0.8-0.6-1.2-0.9
		c-0.1,0.5-0.1,0.8,0.1,1c2.8,4.2,6,8.1,10.1,11.1c10.1,7.5,21.4,11.8,33.9,12.5c12.9,0.7,25-2.8,36.6-8.1c4.4-2,8.1-5.1,11.4-8.7
		C144.5,317.3,145.4,315.9,146.4,314.5z M36.9,109.2c4.5-2.5,8.5-5.5,11.9-9.2c-2.8,0.3-5.3,1.4-7.7,2.5s-4.7,2.5-7.1,3.7
		c2.7-4.4,6.7-7.3,10.9-10c-4.5,0.4-8.2,2.6-12,4.9c0.6-2.2,2.1-3.6,3.7-4.8c1.5-1.2,3.2-2.3,4.8-3.4c-1.7,0.3-3.2,1-4.7,1.7
		c-0.5,0.2-1.2,0.8-1.4,0.7c-1-0.7-1.4,0.2-1.9,0.7c-2.6,3.2-5.2,6.5-7.8,9.7c-0.8,1-0.8,2-0.4,3.1c0.8,2.1,2.1,3.7,3.7,5.2
		c3.8,3.5,8.2,5.7,13.2,7c0.6,0.1,1.2,0.2,1.9,0.3c0.3-5.2,0.2-10.2,3.6-15C43.8,107.5,40.6,109.1,36.9,109.2z M144.8,93.8
		c-2.4,2-3.2,3.7-4.5,9.8c-2.4-4-1.2-7.7,0-11.8c-3.2,1.6-5.6,3.6-8.3,6.1c0.4-4.4,3.4-6.6,5.9-9.7c-2.3,0.5-4.1,0.8-5.8,1.3
		c-1.8,0.5-3.5,1.1-5.2,1.7c-0.1-0.2-0.2-0.4-0.3-0.6c2.5-3,6-4.7,10.1-6.4c-4.5-1.1-8.4-0.6-12.8-0.3c2.9-3.7,6.8-4.2,10.5-4.9
		c0-0.2,0-0.3,0.1-0.5c-2.8-1.5-5.7-3.1-8.6-4.6c-3.3,3.9-4.9,8-4.2,12.8c1.3,9.1,9.2,17.1,18.4,18.9c1.2,0.2,2.5,0.3,3.7,0.4
		C144.8,101.8,145.5,98,144.8,93.8z M57.6,308.8c-0.1,0.1-0.2,0.3-0.4,0.4c3.8,4.3,7.7,8.3,13,10.7c7.5,3.5,15.3,5.7,23.5,6.2
		c14.8,1,28.5-2.9,41-10.8c3.9-2.5,7.3-5.5,10-9.2c2.2-3,3.9-6.2,4.7-9.8c-0.5,0.3-0.8,0.7-1.1,1.1c-3.4,5.1-7.3,9.8-12.5,13
		c-14.8,9.4-30.8,14-48.4,11.6c-10.2-1.3-19.6-4.3-27.5-11.3C59.2,310,58.4,309.5,57.6,308.8z M106.3,97.3
		c-2.3,11.7,6.7,23.9,17,26.7c1.1,0.3,2.2,0.4,3.3,0.5c0.6,0.1,1.2-0.1,1.6-0.2c1-3,2-5.7,2.9-8.5c-0.1-0.1-0.2-0.2-0.3-0.3
		c-2.5,1.7-5,3.4-7.7,5.3c0.7-3.5,3-5.7,4.6-8.5c-3.3,0.9-6.5,1.7-10.1,2.7c2.2-3.4,5.6-4.9,8.6-6.8c-0.1-0.2-0.1-0.4-0.2-0.6
		c-4.2,0.4-8.3,0.8-13,1.2c1.9-2.2,4.2-3.3,6.3-4.9c-2,0.1-4,0.2-6,0.3c0-0.1-0.1-0.2-0.1-0.3c1.2-0.7,2.4-1.4,4-2.3
		C113,101.2,109.5,99.9,106.3,97.3z M47,142.9c-3.5,3.8-6.7,8-9.6,12.4c-0.2,0.4-0.3,1-0.2,1.3c0.6,1.9,1,3.9,2,5.6
		c5.2,8.2,16.5,12.5,25.8,10c1.6-0.4,4.4-2.8,5.3-4.5c-3.7-0.1-6.8,1.9-10.5,3.2c1-1.4,1.7-2.3,2.4-3.3c-0.1-0.1-0.1-0.3-0.2-0.4
		c-3.3,0.9-6.3,3.1-10.3,2.1c2.2-1.5,4.3-2.8,6-4.6c-0.1-0.2-0.2-0.3-0.2-0.5c-3,0.8-6,1.6-9,2.4c-0.1-0.1-0.2-0.3-0.3-0.4
		c1.3-1.4,2.7-2.7,4-4.1c-0.1-0.1-0.1-0.2-0.2-0.3c-2.4,0.6-4.9,1.2-7.7,1.8c1.1-2.6,3.4-3.6,5.4-5.7c-3.3,0.2-6,0.4-9.3,0.6
		c2.8-3.6,6.5-4.6,9.9-5.6C49.1,149.6,48.1,146.4,47,142.9z M149.1,387.9c0.1-1.7-0.6-2.8-1.4-3.7c-1.7-1.9-3.3-3.9-5.3-5.6
		c-5.7-5-12.1-8.9-19-12c-6.8-3-13.5-6.1-20.4-8.9c-8.1-3.3-15.8-7.3-23.2-12c-0.7-0.4-1.5-0.8-2.2-1.2c2,2.2,10.7,8.4,14.1,10.2
		c10.5,5.8,21,11.6,31.8,16.7c8,3.8,15.4,8.8,22.5,14C147.1,386.2,148,387,149.1,387.9z M66,74.2c-0.1-0.2-0.3-0.3-0.4-0.5
		c-4.2,2.2-8.5,4.4-12.7,6.7c-2.2,1.2-2.8,2.4-2.4,4.9c0.6,3.8,2.3,6.9,5,9.6c3.5,3.4,7.6,4.8,12.5,3.4c3.4-1,5.5-3.4,5.9-7.1
		c-2.3,0.7-4.5,1.7-6.9,2.1c-2.4,0.5-4.9,0.7-7.6-1c1.9-0.7,3.4-1.1,4.9-1.7c2.5-0.9,2.9-1.1,3.9-2.5c-3.9,0.9-7.6,0.6-11.6-1.1
		c4.2-0.9,7.9-2.1,11.5-4.7c-4.5-0.6-8.3,1.4-12.6,1.1c1.3-2.4,3.2-3.6,5.1-4.7C62.7,77.6,64.4,75.9,66,74.2z M108.1,118.6
		c-6.4,6.2-6.3,18.2,1.6,26.1c2.7-1.1,5.5-2.3,8.2-3.4c-2.3-1.1-4.9-1-7.2-2.6c3.1-1.3,6.4-0.9,9.4-2c-3.2-1.2-6.7-1.9-9.5-4
		c1.6-0.1,3.1,0.1,4.6,0.2c1.4,0.1,2.9,0.3,4.3-0.2c-3.3-1.5-6.4-3.3-9-5.8c1.1,0,2.1,0.1,3.1,0.3c0.9,0.1,1.9,0.3,2.9,0.4
		c0.9,0.1,1.9,0.4,3.3-0.1C115,125.3,111.3,122.4,108.1,118.6z M24.8,176.5c-0.2,0-0.3,0-0.5,0c-0.4,0.8-0.9,1.7-1.2,2.5
		c-1.4,3.4-2.6,6.9-4.2,10.2c-1.3,2.7-0.7,5,0.9,7.1c3.5,4.6,8.1,7.4,13.8,8.3c1.4,0.2,3-0.3,4.4-0.7c0.7-0.2,2.8-3.8,3.1-4.8
		c-2.9,1-5.7,2.4-9.3,1.8c2.9-2.4,5.8-4.3,8-6.7c-0.1-0.2-0.2-0.3-0.3-0.5c-3.5,1.4-7.1,2.9-10.6,4.3c-0.1-0.2-0.3-0.3-0.4-0.5
		c1.3-1.8,2.5-3.6,3.8-5.4c-0.1-0.1-0.2-0.2-0.3-0.3c-2.4,1.5-4.8,2.9-7.4,4.5c-0.5-2.6,1.3-4.2,2.1-6.2c-2-0.1-3.6,1.4-5.8,1.2
		c2-3.8,4.8-5.9,9-6.7C27.6,182.2,25.6,179.7,24.8,176.5z M99.2,135.5c0.1-3.4,0.1-3.4-2.7-4.5c-1-0.4-2.1-0.9-3-1.4
		c-1.9-1-3.7-2.1-5.5-3.2c-5.8,6.2-5,21.8,1.5,28.3c3.5-1.8,7.1-3.7,11.1-5.7c-2.7-0.2-4.9-0.3-7.1-0.6c-2.1-0.3-4.3-0.6-6.4-2.3
		c3-0.4,5.7-0.8,8.3-1.2c-1.2-0.8-2.5-1.2-3.7-1.7c-1.3-0.5-2.6-1-3.7-2.3c2.9-0.2,5.4-0.4,7.9-0.6c-2.5-2.3-6-2.4-8.9-4.7
		C91.4,133.8,95.3,133.9,99.2,135.5z M63.3,328.5c2.3,2.6,8.7,7.2,12,8.8c12.1,5.7,24.8,8.4,38.2,6.3c6-0.9,11.8-2.4,17-5.6
		c1.2-0.8,2.4-1.7,3.6-2.6c-0.1-0.2-0.2-0.3-0.2-0.5c-7.6,3.2-15.6,4.5-23.7,5.2c-8.3,0.7-16.4,0.1-24.5-1.9
		C77.5,336.3,70.5,332.2,63.3,328.5z M98.4,72.5C98.3,74,98,75.5,98,77c0,0.7,0.4,1.6,0.9,2.1c3.3,3.1,5.4,6.9,6,11.5
		c0.1,0.7,0.5,1.4,0.9,1.8c2.7,2.8,5.9,4.7,9.7,5.3c1.7,0.3,3.5,0.4,5.4-0.4c-2.2-3.7-3.4-7.7-3.9-11.9c-1.6,2.6-1.4,5.4-1.6,8.6
		c-2-1.7-2.4-3.6-2.6-5.4s0-3.7,0-5.9c-2,1.9-3.8,3.6-5.8,5.5c-0.5-3.3,1.6-5.5,2.8-8.3c-2.3,0.2-4.4,0.5-6.9,0.7
		c1.5-2.2,3.8-2.8,5.4-4.3C105,75,101.8,73.8,98.4,72.5z M75.5,340.5c-0.1,0.2-0.2,0.4-0.3,0.6c0.4,0.3,0.7,0.6,1.1,0.8
		c11.9,7.6,24.9,11.8,38.9,13.1c7.4,0.7,14.7-0.4,21.7-3c0.8-0.3,1.5-0.7,2.3-1.1c0-0.2-0.1-0.4-0.1-0.6c-0.9-0.1-1.8-0.3-2.7-0.2
		c-2.6,0.1-5.3,0.3-7.9,0.5c-6.4,0.6-12.8,0.2-19.2-0.5c-10.5-1.1-20.6-3.7-30.2-8.1C78,341.4,76.7,341,75.5,340.5z M80.5,113.5
		c5.2,6.5,11.1,11.1,18.6,14.1c0.8-4.4,2.6-8,5.2-11.4c-1.4,0.5-2.6,1.1-3.8,1.9c-1.2,0.8-2.2,1.8-3.6,2.9c0-2.5,0-2.5,2.9-6.9
		c-3.1,0.2-5.6,2.1-8.8,2.8c1.3-3.9,4.4-5.5,7.2-7.5c-2,0.3-3.8,0.8-5.6,1.4c-1.8,0.6-3.4,1.7-5.6,2c1.4-2.4,3-4,5.9-5.8
		c1-0.7,2-1.3,2.5-2.5c-0.1-0.1-0.2-0.3-0.3-0.4C90.4,107.2,85.6,110.3,80.5,113.5z M30.7,209.5c-5.1-1.6-9.4-4.3-13.4-8.2
		c0,1-0.1,1.5,0,1.9c0.5,1.8,1.1,3.6,1.8,5.6c-2.9-1.6-4.4-4.1-6.1-6.7c0,1.9,0,3.8,0,6.2c-2.9-3.1-3.3-6.5-3.4-10.5
		c-1.7,2.5-1.6,5-1.9,7.4c-2.4-4.8-0.7-9.1,1.5-13.4c-1.3-0.7-2.5-1.4-4.1-2.3c0.2,5.6,0.4,10.7,0.7,15.8c0,0.6,0.3,1.3,0.7,1.7
		c2.3,3.3,5.3,5.7,9.4,6.5C21.4,214.7,26,212.4,30.7,209.5z M20.8,114.4c-0.3,0.4-0.6,0.5-0.6,0.7c-1.8,4.2-3.6,8.3-5.5,12.5
		c-0.4,1-0.1,1.7,0.4,2.5c1.9,3.3,4.8,5.5,8.4,6.8c2.1,0.8,4.1,1.5,6.3,0c0.8-0.6,1.9-0.7,2.9-1.1c1.8-0.7,3.6-1.3,5.3-2.2
		c1.6-0.7,2.9-1.8,3.7-3.5c-1.6,0.6-3.1,1.5-4.7,2.1c-1.7,0.6-3.5,1.1-5.3,1.5c-1.6,0.3-3.3,0.9-5.3,0c4.1-2,7.6-4.2,10.8-6.9
		c-5,0.3-9.2,2.8-14.1,4.1c1.6-1.8,3.3-3.7,5.1-5.7c-3.9,0-6.5,2.3-9.9,4c0.4-3.2,2.6-4.7,3.9-7c-1.5,0.5-2.9,1.1-4.7,1.7
		c1.3-2.8,3.3-4.4,5.6-6C22.3,116.8,21.6,115.7,20.8,114.4z M157.6,34.9c0.3,0.7,0.4,1,0.5,1.3c1.5,3.6,0.9,6.8-2,9.3
		c-1.4,1.2-3,2.2-4.7,2.8c-8.1,2.5-15.4,1.1-21.9-4.4c-0.6-0.5-1.2-1-1.6-1.4c-1.3,0.5-1.1,1.3-0.8,2.1c1.2,3.3,3.8,5.3,6.8,6.7
		c4.6,2,9.4,2.4,14.3,1.8c3.7-0.5,7.2-1.6,10.3-3.7c2.2-1.5,4.1-3.4,4.9-6c0.7-2.2,0.3-4.2-0.9-6.2
		C161.4,35.3,159.7,35.4,157.6,34.9z M161.1,112.1c0.7,1.4,0.2,2.2-0.8,3c-1.8,1.3-4.4,0.9-5.8-0.9c-1.2-1.6-1.9-3.5-1.9-5.6
		c-0.1-1.8,0.7-3.1,2.2-4c2-1.2,4-1.5,6.1-0.4c0.9,0.5,1.8,1.3,3.4,1c-0.7-1.1-1-2.1-1.7-2.7c-2.2-2.1-6.6-2.2-9.7-0.4
		c-2.9,1.7-4.3,4.8-3.4,8c0.5,1.9,1.4,3.8,2.5,5.4c2.9,4.1,8.7,4.2,12,0.4c2.9-3.3,1.6-8.6-2.5-10.2c-3.4-1.3-6.9,1.1-6.6,4.5
		c0.1,1.4,0.8,2.4,2,3s2.3,0.3,3.3-0.6C160.5,112.5,160.7,112.4,161.1,112.1z M178.1,109.2c-6.2-7-7.2-13-3-18.5
		c4-5.2,10.1-6,17.2-2.4c1.3-2.7,1-3.5-1.6-4.6c-0.8-0.3-1.7-0.6-2.5-0.8c-9.7-1.9-19,5.3-19.5,15.1c-0.2,4.9,1.7,9,5.6,12.1
		c1.3,1,1.7,1,2.9-0.1C177.5,109.9,177.7,109.6,178.1,109.2z M165.8,74.9c0,0.1,0.1,0.3,0.1,0.4c1.4-0.2,2.8-0.2,4.1-0.6
		c0.6-0.1,1.2-0.8,1.6-1.3c0.7-0.7,1.2-1.7,1.9-2.4c0.9-0.8,1.3-1.6,0.7-2.7c-0.7-1.3-0.6-2.6-0.5-3.9c0.3-3.1-0.8-4.2-3.9-4.3
		c-1.7,0-3.5-0.4-5.2-0.6c-0.8-0.1-1.6-0.3-2.4-0.1c-1.6,0.5-2.6,1.8-3.3,3.3s-1.1,3-0.5,4.9c2.5-3.1,2.5-3.1,3.9-3.6
		c-0.7,1-1.4,2.1-2.2,3.1c0.1,0.1,0.2,0.1,0.3,0.2c1.4-0.8,2.8-1.5,4.2-2.3c0.1,0.1,0.1,0.2,0.2,0.3c-1.2,1.2-2.5,2.3-3.7,3.5
		c0.1,0.2,0.2,0.3,0.3,0.5c1.8-0.9,3.6-1.9,5.4-2.8c0.1,0.1,0.1,0.2,0.2,0.4c-1.3,1.1-2.6,2.1-3.8,3.2c0.1,0.1,0.1,0.2,0.2,0.4
		c1.5-0.7,2.9-1.3,4.4-2c0.1,0.1,0.2,0.2,0.2,0.3c-1.1,1-2.3,2.1-3.4,3.1c0.1,0.1,0.1,0.2,0.2,0.3c1.4-0.4,2.9-0.8,4.3-1.2
		c0,0.1,0.1,0.1,0.1,0.2c-0.8,0.6-1.5,1.2-2.3,1.9c0.4,0.1,0.7,0.3,1.3,0.5C167.4,74.1,166.6,74.5,165.8,74.9z M34.8,170.2
		c-2,0.4-3.7,0.7-5.6,1.1c0.7-3.1,3.8-4.9,3.2-8.2c-1.7,2.3-3.2,4.7-4.6,7.2c-0.2,0.4-0.1,0.9-0.1,1.4c0.7,4.2,2.7,7.7,6.1,10.2
		c5.6,4.2,11.9,4.7,18.5,3.4c0.5-0.1,1-0.3,1.3-0.6c1.5-1.6,3-3.2,4.4-4.8c-5.5,1.7-10.5,4.5-16.9,3.2c2.2-1.3,4.3-1.8,5.6-3.7
		c-2.8,0.5-5.7,1.1-8.5,1.6c-0.1-0.1-0.2-0.3-0.2-0.4c1.1-1.1,2.1-2.2,3.6-3.7c-2.8,0.6-4.8,1.6-7.1,2.5c0.1-2.6,2.1-3.8,2.9-5.8
		c-1.9,0.7-3.8,1.3-5.8,2.1c0-0.4-0.1-0.7,0-0.8C32.5,173.3,33.5,171.9,34.8,170.2z M134,60c-1.8,1.1-3.2,2.1-4.7,2.8
		c-3.9,2-8.2,0.2-9.5-3.8c-0.6-1.8-0.3-3.3,0.9-4.2c1.3-1,3.2-0.9,4.9,0.2c-0.5,0.4-1,0.8-1.4,1.3c-1.3,1.5-1.2,3.7,0.3,4.9
		s3.7,0.9,4.8-0.7c0.4-0.5,0.6-1.1,1-1.6c1.4-1.8,1.2-3.5,0.2-5.3c-1.7-2.9-4.9-4.1-8.3-3.2c-3.5,1-5.5,3.5-5.4,7
		c0.1,4.4,3.1,8,7.4,8.7C128.4,66.7,132.5,64.3,134,60z M94.8,62.1c3.1,7.8,20.5,13.6,26.2,9.6c-1.7-1.1-3.4-2.1-5-3.3
		c-1.6-1.2-3-2.7-4.8-4.5c0.4,2.3,0.7,4.2,1.1,6.5c-2.9-2.1-3.8-4.9-4.9-7.9c-1.1,1.4-2,2.6-2.9,3.8c-0.2-0.1-0.4-0.2-0.5-0.2
		c0.3-1.8,0.5-3.6,0.8-5.4c-2,0.7-3.1,2.6-5.3,3c-0.2-1.4,0.7-2,1.2-2.9c0.5-0.8,1.1-1.6,1.7-2.5c-0.1-0.1-0.2-0.2-0.3-0.3
		C99.7,59.4,97.3,60.7,94.8,62.1z M142.8,111.1c-2.9,0.8-5,2.6-6.7,5.6c-3.2,5.6-3.7,11.6-2.5,17.8c0.1,0.3,0.3,0.7,0.5,0.9
		c3.6-1,5.5-1.9,6.7-2.9c-1.5-0.4-3.2,0-4.8-1.4c1.9-0.7,3.6-1.3,5.6-2c-1.9-1.2-4-1.3-5.5-3.2c1-0.1,1.8-0.2,2.5-0.3
		c0.8-0.1,1.6-0.1,2.7-0.2c-3.5-5-3.6-5.3-3.1-7.4c1.5,0.9,3.1,1.8,4.6,2.8C142.8,117.5,142.8,114.4,142.8,111.1z M88.5,64.3
		c-5.8,1.9-11.1,4.2-16.4,6.7c0.1,4.3,2.6,7.1,5.4,10c0.7-0.7,1.3-1.2,1.8-1.8c2.3-2.1,5-3.5,8.1-3.8c1.7-0.2,2.7-1,3.8-2.7
		c-2.8,0.8-5.2,1.5-7.6,2.2c-0.1-0.2-0.2-0.3-0.3-0.5c1.4-1.3,2.9-2.6,4.3-3.9c-0.1-0.1-0.2-0.2-0.2-0.3c-2.5,0.8-5,1.7-7.5,2.5
		c-0.1-0.2-0.2-0.3-0.3-0.5c0.5-0.5,1-1.2,1.6-1.6c1.7-1.2,3.4-2.4,5.1-3.6C87,66.3,88,65.8,88.5,64.3z M11.8,142.9
		c-2.4,1-2.6,1.3-3.1,3.4c-0.2,1.2-0.4,2.3-0.6,3.5c-0.8,6,4,12.4,10.4,13.2c0.1-2.6,0-5.3,0.2-7.9c0.1-2.5,0.5-5.1,0.7-7.9
		c-2.1,1.8-3.1,4.1-4,6.9c-1.8-3.1-0.8-5.9-0.1-8.9c-2.1,1.4-3,3.5-4.3,5.4C10.3,148.3,10.3,148.3,11.8,142.9z M196.8,72.3
		c0.4-0.1,0.6-0.1,0.6-0.1c0.2-0.3,0.4-0.5,0.5-0.8c2.8-6.3,2.6-12.4-0.8-18.4c-4.9-8.6-12.4-13.5-22-15.5c-1.5-0.3-3,0-4.6,0
		c4.4,1.3,8.5,3.2,12.4,5.5c4.7,2.8,8.5,6.5,11.3,11.2c2.5,4.2,3.7,8.6,3.1,13.5C197.2,69.2,197,70.7,196.8,72.3z M65.2,125.6
		c3.4,6,8.1,9.8,14.2,11.9c1.1-3.8,2.2-7.3,3.2-10.8c-2.8,1.7-4.7,4.2-6.2,7c-0.8-3.5,0.8-6.3,2.7-9c-0.1-0.1-0.2-0.2-0.4-0.3
		c-2,1.4-4.1,2.9-6.6,4.7c0.7-3.1,2.4-5,3.7-7.1c-0.2-0.1-0.3-0.3-0.5-0.4c-1.7,1.4-3.4,2.7-5.5,4.4c0.5-1.9,0.9-3.4,1.4-5.5
		C69.1,122.4,67.2,123.9,65.2,125.6z M155.1,66.7c0.1-0.1,0.3-0.1,0.4-0.2c-0.2-1.2-0.3-2.4-0.6-3.6c-0.6-2.1-1.8-2.9-4.1-3
		c-1.2-0.1-2.4-0.3-3.5-0.6c-2.3-0.6-3.3-0.3-4,2c-0.4,1.1-0.8,1.9-2,2.4c-1.4,0.6-1.5,1.4-0.7,2.7c0.3,0.5,0.7,1.1,1.2,1.5
		c0.9,0.8,1.6,1.7,1.6,3c0,1.2,0.9,2,2,2.5c1.4,0.7,2.8,1.1,4.7,0.6c-1.3-0.5-2.3-0.8-3.6-1.3c0.6-0.3,0.9-0.5,1.2-0.7
		c-0.6-0.5-1.2-1-2.1-1.7c1.6,0.2,2.6,0.4,3.6,0.5c-1.2-1.3-2.7-2.1-3.6-3.9c1.9,0.9,3.5,1.7,5.1,2.5c0.1-0.1,0.2-0.3,0.3-0.4
		c-1.2-1-2.4-2.1-3.6-3.1c0.1-0.1,0.2-0.3,0.3-0.4c1.4,0.7,2.8,1.4,4.2,2.1c0.1-0.1,0.1-0.2,0.2-0.3c-0.9-1-1.7-1.9-2.6-2.9
		c0.1-0.1,0.2-0.2,0.3-0.3c1.1,0.7,2.1,1.4,3.5,2.4c-0.6-1.3-1-2.2-1.4-3.1c0.1-0.1,0.2-0.1,0.3-0.2C153,64.4,154.1,65.6,155.1,66.7
		z M21.3,221.1c-3,1.5-4.9,3.8-8.2,4.9c0.8-1.9,1.5-3.3,2.1-4.7c-0.1-0.1-0.3-0.2-0.4-0.3c-1.5,0.9-3,1.7-4.7,2.7
		c0.2-2.5,1.9-4,3.3-5.7c-1.2-0.6-2.4-1.1-3.5-1.7c-1.1-0.6-2.1-1.3-3.5-2.3c0.5,3.5,0.9,6.5,1.3,9.5c0.1,0.5,0.4,1,0.8,1.5
		c1.9,2.4,4.2,4.4,7.2,5.3c1.6,0.5,3.4,0.4,5.2,0.4c1.1,0,1.9-0.6,2.3-1.7c0.8-1.8,1.8-3.6,2.6-5.4c0.2-0.4,0.2-0.8,0.3-1.2
		c-2.6,2.3-5.1,4.6-8.4,5.5c-0.1-0.1-0.3-0.3-0.4-0.4C18.7,225.5,19.8,223.5,21.3,221.1z M16.1,170.8c-2.5,1.9-3.2,4.8-4.4,7.7
		c-1.4-2.5-0.6-4.9-1-7.3c-0.9,1.7-1.7,3.4-2.7,5.3c-0.2-0.5-0.4-0.7-0.4-0.9c0-1.9,0-3.8,0-5.9c-1.4,0.6-2,1.5-2,2.8
		c-0.1,2.4-0.1,4.8-0.4,7.2C5,182.3,6,184,7.9,185.3c1.1,0.8,2.3,1.4,3.5,2c1,0.4,2.1,0.7,3.3,0.1C13.2,181.7,14.6,176.3,16.1,170.8
		z M155.2,82.4c-0.5,1.5-0.2,2.5,0.9,3.2c0.9,0.5,1.1,1.3,1,2.2c-0.1,0.6-0.1,1.1,0,1.7c0.2,1.4,0.9,2.4,2.2,2.9s2.4,0.2,3.5-0.8
		c0.9-0.8,1.9-1.4,3-1.9c1-0.5,1.6-1.2,2-2.2c0.5-1.3,1.1-2.6,1.8-3.9s0.7-2.2-0.3-3.3c-1.4-1.5-3.2-2.3-5.3-2.5
		c1.1,0.9,2.2,1.8,3.3,2.7c-0.1,0.1-0.1,0.2-0.2,0.3c-1.1-0.4-2.1-0.8-3.2-1.3c-0.1,0.2-0.2,0.4-0.3,0.5c0.8,0.7,1.6,1.4,2.4,2
		c-0.1,0.1-0.1,0.2-0.2,0.3c-1-0.4-2-0.8-3-1.2c-0.1,0.2-0.2,0.3-0.4,0.5c0.8,0.5,1.5,1.1,2.3,1.6c-0.1,0.1-0.2,0.3-0.3,0.4
		c-1.2-0.8-2.5-1.5-4.2-2.5c0.7,1.5,1.3,2.6,1.8,3.8c-0.1,0.1-0.2,0.1-0.3,0.2c-0.8-0.7-1.7-1.5-2.8-2.5c0.4,1.4,0.7,2.3,1.1,3.6
		c-2-1.4-2.5-3.3-3.2-5.6c-0.2,1.2-0.3,1.9-0.4,2.8C155.8,83.2,155.6,82.9,155.2,82.4z M185.3,35.8c0.6,0.3,1.2,0.6,1.8,1
		c2.3,1.4,4.6,2.6,6.7,4.1c6,4.2,9,10.2,9.6,17.4c0.1,0.8,0.2,1.7,0.3,2.5c0.3-0.1,0.4-0.1,0.4-0.1c2.3-5.7,2.1-14.5-4.7-20
		C195.4,37.4,190.6,36.1,185.3,35.8z M130.1,40.8c1.7,1.3,2.9,2.4,4.3,3.2c3.8,2.1,8,2.9,12.3,2.3c2.2-0.3,4.4-0.9,6.3-2
		c3.4-1.8,4.1-5.1,2.2-8.4c-0.8-1.4-1-1.4-2.9-0.8c0.6,1.9,0.3,3.6-0.9,5.2c-4.1,5.3-14.8,5.2-17-1.2c0-0.1-0.2-0.2-0.5-0.4
		C132.9,39.3,131.8,39.9,130.1,40.8z M143,367.9c0.1-0.2,0.1-0.3,0.2-0.5c-0.9-0.4-1.8-0.8-2.7-1.2c-6.2-2.3-12.4-4.6-18.6-6.8
		c-2.5-0.9-5.1-1.7-7.7-2.6c-0.5-0.2-1.1-0.1-2-0.2C118.6,363,135.2,368.9,143,367.9z M191.8,90.2c-5.6-3.5-12.4-2.1-15.4,2.9
		c-3,4.9-1.5,11.1,3.6,14.4c0.5-0.6,1.1-1.2,1.7-1.8c-0.9-0.6-1.5-1.1-2.1-1.6c-2.7-2.4-3.1-5.9-1-8.9c1.3-1.8,3.1-2.9,5.3-3.5
		c2.4-0.7,4.7-0.1,7.1,0.8C191.2,91.6,191.5,90.9,191.8,90.2z M143.1,77.2c-0.1,0.9-0.1,1.5-0.3,2c-0.1,0.5-0.4,1-0.7,1.5
		c-0.8,1.6-0.7,2,0.7,3.3c0.8,0.7,1.6,1.6,2.2,2.4c1,1.3,2.2,1.8,3.7,1.1c2.1-1.1,3.6-2.7,4.2-5.4c-1.6,0.8-2.9,1.5-4.2,2.2
		c-0.1-0.1-0.1-0.2-0.2-0.4c0.6-0.7,1.3-1.5,2.2-2.5c-1.5,0.4-2.7,0.7-3.9,1.1c0-0.1-0.1-0.2-0.1-0.3c1.1-0.7,2.3-1.5,3.4-2.2
		c-0.1-0.1-0.1-0.3-0.2-0.4c-0.9,0.2-1.8,0.3-2.7,0.5c0-0.1-0.1-0.2-0.1-0.3c0.9-0.6,1.7-1.2,2.6-1.7c-0.1-0.1-0.1-0.2-0.2-0.4
		c-1.3,0.3-2.6,0.7-3.8,1c0-0.1-0.1-0.3-0.1-0.4c0.9-0.6,1.8-1.1,2.8-1.7c0-0.1-0.1-0.2-0.1-0.3C146.6,76.6,144.9,76.9,143.1,77.2z
		 M189.4,65.9c1.4-1.1,1.2-2.3,1.2-3.3c-0.2-8.2-7.9-16.9-16.1-17.9c-0.7-0.1-1.4,0-2.2,0.1c4.2,1.7,7.7,4.2,10.7,7.4
		c2.6,2.8,4.8,5.8,5.8,9.5C189.1,63,189.2,64.3,189.4,65.9z M14.1,234.5c-1.5-0.8-2.9-1.5-4.6-2.4c1.6,7,3.5,13.5,6.3,19.9
		c1.2-5,2.4-9.7,3.6-14.5c-0.1-0.1-0.2-0.1-0.3-0.2c-1.2,2.2-2.3,4.5-3.5,6.7c-0.1,0-0.3-0.1-0.4-0.1c-0.2-1.5-0.4-2.9-0.6-4.4
		c-0.2-0.1-0.3-0.3-0.5-0.4c-0.2,0.7-0.4,1.3-0.7,2c-0.2-0.2-0.4-0.3-0.6-0.5C12.5,238.6,13.3,236.7,14.1,234.5z M160.9,74.6
		c0-1.8-1.7-3.5-3.6-3.5c-1.6,0-2.8,1.3-2.8,3.2c0,1.9,1.3,3.3,3,3.3C159.3,77.6,160.8,76.2,160.9,74.6z M33.8,153.6
		c-4-0.4-7.6-0.4-11.1,1.2c0,1.1,0,2.1,0,2.9c2.8-0.5,5.4-1.2,8.1-1.5C32.4,156,33.2,155.4,33.8,153.6z M17.7,183
		c2.2-4.8,4.2-9.2,6.3-13.8c-1.8,0.5-3.5,0.8-4.1,2.4C18.6,175.1,17.5,178.7,17.7,183z M30.7,158.3c-2.9-0.3-5.5-0.2-8.1,0.6
		c-0.1,0.7-0.2,1.2-0.2,1.8s0,1.2,0,1.8c1.7-0.4,3.2-1.1,4.8-1.1C29.3,161.4,30.1,160.2,30.7,158.3z M46.4,130.5
		c-0.8,1.2-1.4,2.2-2.2,3.5c1.7-0.1,3.2-0.4,4.6-0.3c1.9,0.2,3-0.6,4-2.4C50.6,131,48.5,130.7,46.4,130.5z M27.3,163.8
		c-4.3-0.4-5.8,0.6-6.1,4.5c1.1-0.6,2.1-1.3,3.2-1.5C26.2,166.4,26.8,165.2,27.3,163.8z"/>
	
		<linearGradient id="SVGID_00000119094571006898204130000002389919776187680399_" gradientUnits="userSpaceOnUse" x1="39.4995" y1="249.6493" x2="113.7" y2="249.6493">
		<stop  offset="5.618000e-03" style="stop-color:#F0CC7E"/>
		<stop  offset="0.1854" style="stop-color:#E8C47E"/>
		<stop  offset="0.5955" style="stop-color:#C78A03"/>
		<stop  offset="0.7927" style="stop-color:#E3B75E"/>
		<stop  offset="0.8708" style="stop-color:#EFCA84"/>
		<stop  offset="1" style="stop-color:#F4E7CF"/>
	</linearGradient>
	<path style="fill:url(#SVGID_00000119094571006898204130000002389919776187680399_);" d="M76.4,286.7c-20.5-0.1-37-16.8-36.9-37.3
		s16.8-37,37.4-36.8c20.3,0.1,36.8,16.8,36.8,37.2C113.6,270.2,96.9,286.8,76.4,286.7z M76.4,282.3c18.2,0.1,33-14.5,33.2-32.8
		c0.2-18.3-14.5-33.2-32.9-33.3c-18.1-0.1-32.9,14.5-33.1,32.6C43.4,267.3,58,282.2,76.4,282.3z"/>
	
		<linearGradient id="SVGID_00000034074190884586984030000015523996584918787235_" gradientUnits="userSpaceOnUse" x1="136.8" y1="258.037" x2="190.3" y2="258.037">
		<stop  offset="5.618000e-03" style="stop-color:#F0CC7E"/>
		<stop  offset="0.1854" style="stop-color:#E8C47E"/>
		<stop  offset="0.5955" style="stop-color:#C78A03"/>
		<stop  offset="0.7927" style="stop-color:#E3B75E"/>
		<stop  offset="0.8708" style="stop-color:#EFCA84"/>
		<stop  offset="1" style="stop-color:#F4E7CF"/>
	</linearGradient>
	<path style="fill:url(#SVGID_00000034074190884586984030000015523996584918787235_);" d="M190.3,264.2c-17.4,11-43.1,4.7-53.5-12.3
		c1.2-0.7,2.3-1.4,3.5-1.9c7.7-3.6,15.8-4.3,24.1-3c7,1.1,13.4,3.6,18.9,8.2C186.3,257.5,188.7,260.4,190.3,264.2z"/>
	
		<linearGradient id="SVGID_00000000908702771106349470000002063585666165380773_" gradientUnits="userSpaceOnUse" x1="128.9505" y1="220.5" x2="152.1381" y2="220.5">
		<stop  offset="5.618000e-03" style="stop-color:#F0CC7E"/>
		<stop  offset="0.1854" style="stop-color:#E8C47E"/>
		<stop  offset="0.5955" style="stop-color:#C78A03"/>
		<stop  offset="0.7927" style="stop-color:#E3B75E"/>
		<stop  offset="0.8708" style="stop-color:#EFCA84"/>
		<stop  offset="1" style="stop-color:#F4E7CF"/>
	</linearGradient>
	<path style="fill:url(#SVGID_00000000908702771106349470000002063585666165380773_);" d="M147.5,194.3c0.5,0.8,1,1.5,1.4,2.4
		c3.3,6.7,3.9,13.8,2.6,21.1c-2,11.1-7.4,20.3-15.9,27.7c-0.4,0.4-0.9,0.7-1.3,1c-0.2,0.1-0.4,0.1-0.7,0.2
		C123.7,229.9,130.2,204.5,147.5,194.3z"/>
	
		<linearGradient id="SVGID_00000159439836543273721860000002428502853527371949_" gradientUnits="userSpaceOnUse" x1="189.9313" y1="234.15" x2="211.5922" y2="234.15">
		<stop  offset="5.618000e-03" style="stop-color:#F0CC7E"/>
		<stop  offset="0.1854" style="stop-color:#E8C47E"/>
		<stop  offset="0.5955" style="stop-color:#C78A03"/>
		<stop  offset="0.7927" style="stop-color:#E3B75E"/>
		<stop  offset="0.8708" style="stop-color:#EFCA84"/>
		<stop  offset="1" style="stop-color:#F4E7CF"/>
	</linearGradient>
	<path style="fill:url(#SVGID_00000159439836543273721860000002428502853527371949_);" d="M205.9,207.4c5.6,10.1,7,20.2,4.5,31
		c-2.3,10-10.1,20-15.2,22.5c-4.7-9.6-6.5-19.6-4.4-30.2C192.8,221.1,197.8,213.5,205.9,207.4z"/>
	
		<linearGradient id="SVGID_00000173145361806295699440000002663578248556717990_" gradientUnits="userSpaceOnUse" x1="153.6" y1="197.6935" x2="202.3" y2="197.6935">
		<stop  offset="5.618000e-03" style="stop-color:#F0CC7E"/>
		<stop  offset="0.1854" style="stop-color:#E8C47E"/>
		<stop  offset="0.5955" style="stop-color:#C78A03"/>
		<stop  offset="0.7927" style="stop-color:#E3B75E"/>
		<stop  offset="0.8708" style="stop-color:#EFCA84"/>
		<stop  offset="1" style="stop-color:#F4E7CF"/>
	</linearGradient>
	<path style="fill:url(#SVGID_00000173145361806295699440000002663578248556717990_);" d="M153.6,191c12.2-8.9,42.1-1.6,48.7,11.8
		c-0.6,0.4-1.3,0.9-1.9,1.3c-12.2,6.9-29.4,5.1-40-4c-2.3-1.9-4.2-4.2-5.6-6.8C154.3,192.5,154,191.7,153.6,191z"/>
	
		<linearGradient id="SVGID_00000110454343957598680140000016700498218432399243_" gradientUnits="userSpaceOnUse" x1="143.3" y1="227.25" x2="195.9" y2="227.25">
		<stop  offset="5.618000e-03" style="stop-color:#F0CC7E"/>
		<stop  offset="0.1854" style="stop-color:#E8C47E"/>
		<stop  offset="0.5955" style="stop-color:#C78A03"/>
		<stop  offset="0.7927" style="stop-color:#E3B75E"/>
		<stop  offset="0.8708" style="stop-color:#EFCA84"/>
		<stop  offset="1" style="stop-color:#F4E7CF"/>
	</linearGradient>
	<path style="fill:url(#SVGID_00000110454343957598680140000016700498218432399243_);" d="M195.9,210.7c-9.8,12.8-12.1,26.8-8,42.7
		c-13.6-10.8-28.4-13.3-44.6-9.4c4.9-6.1,8.8-12.7,10.9-20.2c2.2-7.4,2.6-14.9,1-22.7c5.6,5,11.9,8.4,19.1,10
		C181.5,212.8,188.6,212.5,195.9,210.7z M160,209.8c0,2.6,0.1,4.8,0,6.9c-0.2,6.3-2.1,12.1-4.9,17.7c-0.4,0.7-0.6,1.5-0.9,2.2
		c4.8,0.5,9.4,0.9,13.8,1.5c4.6,0.6,8.7,2.7,12.9,4.5c0.6-4.7,1-9.2,1.9-13.6c0.9-4.3,2.5-8.5,3.9-13
		C177.3,216.1,168.7,213.2,160,209.8z"/>
	
		<linearGradient id="SVGID_00000027594956324236051110000014112147199816405946_" gradientUnits="userSpaceOnUse" x1="52" y1="270.9826" x2="91.3" y2="270.9826">
		<stop  offset="5.618000e-03" style="stop-color:#F0CC7E"/>
		<stop  offset="0.1854" style="stop-color:#E8C47E"/>
		<stop  offset="0.5955" style="stop-color:#C78A03"/>
		<stop  offset="0.7927" style="stop-color:#E3B75E"/>
		<stop  offset="0.8708" style="stop-color:#EFCA84"/>
		<stop  offset="1" style="stop-color:#F4E7CF"/>
	</linearGradient>
	<path style="fill:url(#SVGID_00000027594956324236051110000014112147199816405946_);" d="M52,266.6c1-0.6,1.9-1.2,2.8-1.6
		c10.7-4.3,21-3.3,30.5,3.3c1.9,1.3,3.2,3.3,4.8,5c0.5,0.6,0.8,1.5,1.2,2.2C79.5,283.2,60.5,279.8,52,266.6z"/>
	
		<linearGradient id="SVGID_00000175296510721230674690000001577855522823042947_" gradientUnits="userSpaceOnUse" x1="90.9442" y1="253.7" x2="106.9174" y2="253.7">
		<stop  offset="5.618000e-03" style="stop-color:#F0CC7E"/>
		<stop  offset="0.1854" style="stop-color:#E8C47E"/>
		<stop  offset="0.5955" style="stop-color:#C78A03"/>
		<stop  offset="0.7927" style="stop-color:#E3B75E"/>
		<stop  offset="0.8708" style="stop-color:#EFCA84"/>
		<stop  offset="1" style="stop-color:#F4E7CF"/>
	</linearGradient>
	<path style="fill:url(#SVGID_00000175296510721230674690000001577855522823042947_);" d="M102.6,234.4c8.3,12,4,31-7.5,38.6
		C87,262.7,91.4,240.2,102.6,234.4z"/>
	
		<linearGradient id="SVGID_00000101819607344459980000000000193977511531467437_" gradientUnits="userSpaceOnUse" x1="46.3702" y1="243.6" x2="63.3895" y2="243.6">
		<stop  offset="5.618000e-03" style="stop-color:#F0CC7E"/>
		<stop  offset="0.1854" style="stop-color:#E8C47E"/>
		<stop  offset="0.5955" style="stop-color:#C78A03"/>
		<stop  offset="0.7927" style="stop-color:#E3B75E"/>
		<stop  offset="0.8708" style="stop-color:#EFCA84"/>
		<stop  offset="1" style="stop-color:#F4E7CF"/>
	</linearGradient>
	<path style="fill:url(#SVGID_00000101819607344459980000000000193977511531467437_);" d="M60,224.4c0.5,0.9,1.1,1.7,1.5,2.7
		c1.9,4.5,2.3,9.1,1.5,13.9c-1.4,8.4-5.3,15.3-11.7,20.9c-0.4,0.4-0.9,0.6-1.3,0.9C42.6,251.4,46.8,231.8,60,224.4z"/>
	
		<linearGradient id="SVGID_00000008834516908557758150000002105415325092676003_" gradientUnits="userSpaceOnUse" x1="64.5" y1="226.8279" x2="99.9" y2="226.8279">
		<stop  offset="5.618000e-03" style="stop-color:#F0CC7E"/>
		<stop  offset="0.1854" style="stop-color:#E8C47E"/>
		<stop  offset="0.5955" style="stop-color:#C78A03"/>
		<stop  offset="0.7927" style="stop-color:#E3B75E"/>
		<stop  offset="0.8708" style="stop-color:#EFCA84"/>
		<stop  offset="1" style="stop-color:#F4E7CF"/>
	</linearGradient>
	<path style="fill:url(#SVGID_00000008834516908557758150000002105415325092676003_);" d="M64.5,221.9c12.7-6.8,29.9-0.4,35.4,8.6
		C90.3,238.2,69.7,234.9,64.5,221.9z"/>
	
		<linearGradient id="SVGID_00000134949681221999032850000018272148284551415448_" gradientUnits="userSpaceOnUse" x1="57" y1="248.4" x2="95.7" y2="248.4">
		<stop  offset="5.618000e-03" style="stop-color:#F0CC7E"/>
		<stop  offset="0.1854" style="stop-color:#E8C47E"/>
		<stop  offset="0.5955" style="stop-color:#C78A03"/>
		<stop  offset="0.7927" style="stop-color:#E3B75E"/>
		<stop  offset="0.8708" style="stop-color:#EFCA84"/>
		<stop  offset="1" style="stop-color:#F4E7CF"/>
	</linearGradient>
	<path style="fill:url(#SVGID_00000134949681221999032850000018272148284551415448_);" d="M57,260.7c7.2-9.2,10.7-19.3,8.4-31.5
		c8.9,7.9,18.8,9.9,30.3,7c-3.7,4.8-6.1,9.6-7.1,15c-1,5.3-0.5,10.6,0.8,16.4C79.4,259.8,68.7,258,57,260.7z M64.9,255.5
		c2.3,0.1,4.5,0.2,6.7,0.5c2.2,0.3,4.4,0.7,6.6,1.4c2.1,0.6,4.1,1.5,6.4,2.4c0.4-6.7,1.3-13.1,4.5-19.3c-7.2-0.2-13.5-2.2-19.7-4.6
		c-0.4,3.5-0.4,6.9-1.1,10.1C67.5,249.1,66.1,252.2,64.9,255.5z"/>
</g>
</svg>
